<svg width="24" height="24" viewBox="0 0 24 24" fill="none" xmlns="http://www.w3.org/2000/svg">
<mask id="mask0" mask-type="alpha" maskUnits="userSpaceOnUse" x="0" y="0" width="24" height="24">
<rect width="24" height="24" fill="#C4C4C4"/>
</mask>
<g mask="url(#mask0)">
<path d="M19.4017 7.66406C19.8225 7.66406 20.1143 7.24605 19.9565 6.86273C19.3962 5.50176 18.0371 4.53906 16.4532 4.53906H15.7211C15.448 3.12215 14.1835 2 12.6362 2H11.3638C9.81748 2 8.55212 3.12141 8.27892 4.53906H7.54677C5.96293 4.53906 4.60381 5.50176 4.04346 6.86273C3.88565 7.24605 4.17746 7.66406 4.59833 7.66406H19.4017ZM11.3638 3.17188H12.6362C13.5069 3.17188 14.2461 3.74742 14.4949 4.53906H9.50507C9.7539 3.74742 10.4931 3.17188 11.3638 3.17188Z" fill="#8F8F88"/>
<path d="M6.23661 20.367C6.30297 21.2827 7.08694 22 8.02133 22H15.9783C16.9127 22 17.6967 21.2827 17.7631 20.367L18.5989 8.83594H5.40076L6.23661 20.367ZM13.6308 11.9707C13.6473 11.6475 13.9278 11.3983 14.2563 11.4148C14.5852 11.431 14.8386 11.7061 14.8221 12.0293L14.504 18.2793C14.4881 18.5925 14.2246 18.8359 13.9089 18.8359C13.5654 18.8359 13.2957 18.5538 13.3127 18.2207L13.6308 11.9707ZM9.74346 11.4148C10.072 11.3986 10.3525 11.6476 10.3689 11.9707L10.687 18.2207C10.7039 18.5539 10.434 18.8359 10.0908 18.8359C9.7751 18.8359 9.51157 18.5925 9.49563 18.2793L9.17754 12.0293C9.16112 11.7061 9.41447 11.431 9.74346 11.4148Z" fill="#8F8F88"/>
</g>
</svg>
