<svg width="50" height="50" viewBox="0 0 50 50" fill="none" xmlns="http://www.w3.org/2000/svg">
<g id="Group 2">
<circle id="Oval" cx="25" cy="25" r="25" fill="#2E2E2E"/>
<g id="search">
<g id="Oval Copy">
<path id="Mask" d="M27.4186 28.4311C25.739 28.0705 24.206 27.2346 22.9852 26.0139C21.2973 24.3261 20.3678 22.0822 20.3678 19.6955C20.3678 17.3087 21.2973 15.0648 22.9852 13.377C26.4696 9.8931 32.1387 9.8931 35.623 13.377C38.1163 15.8703 38.9111 19.6092 37.6476 22.9022C37.4736 23.3559 37.7002 23.8649 38.154 24.039C38.6078 24.2128 39.1167 23.9863 39.2908 23.5326C40.8031 19.5915 39.8517 15.1167 36.8674 12.1326C34.8471 10.1125 32.1611 9 29.3041 9C26.447 9 23.761 10.1125 21.7407 12.1326C19.7205 14.1528 18.6079 16.8386 18.6079 19.6955C18.6079 22.2568 19.5047 24.679 21.1456 26.609L18.8189 28.9357L17.4207 27.5376C17.077 27.194 16.5198 27.194 16.1762 27.5376L9.08453 34.6288C7.63849 36.0747 7.63849 38.4274 9.08453 39.8734L9.12489 39.9138C9.82538 40.6142 10.7568 41 11.7474 41C12.7381 41 13.6694 40.6142 14.3699 39.9138L21.4615 32.8226C21.6266 32.6577 21.7193 32.4338 21.7193 32.2004C21.7193 31.9671 21.6266 31.7432 21.4615 31.5783L20.0633 30.1802L22.3894 27.8543C23.73 28.9922 25.3245 29.7816 27.0491 30.1519C27.1114 30.1653 27.1736 30.1716 27.2347 30.1716C27.6406 30.1716 28.0056 29.8891 28.0943 29.4762C28.1962 29.001 27.8938 28.5331 27.4186 28.4311Z" fill="#8F8F8F"/>
<mask id="mask0" mask-type="alpha" maskUnits="userSpaceOnUse" x="8" y="9" width="32" height="32">
<path id="Mask_2" d="M27.4186 28.4311C25.739 28.0705 24.206 27.2346 22.9852 26.0139C21.2973 24.3261 20.3678 22.0822 20.3678 19.6955C20.3678 17.3087 21.2973 15.0648 22.9852 13.377C26.4696 9.8931 32.1387 9.8931 35.623 13.377C38.1163 15.8703 38.9111 19.6092 37.6476 22.9022C37.4736 23.3559 37.7002 23.8649 38.154 24.039C38.6078 24.2128 39.1167 23.9863 39.2908 23.5326C40.8031 19.5915 39.8517 15.1167 36.8674 12.1326C34.8471 10.1125 32.1611 9 29.3041 9C26.447 9 23.761 10.1125 21.7407 12.1326C19.7205 14.1528 18.6079 16.8386 18.6079 19.6955C18.6079 22.2568 19.5047 24.679 21.1456 26.609L18.8189 28.9357L17.4207 27.5376C17.077 27.194 16.5198 27.194 16.1762 27.5376L9.08453 34.6288C7.63849 36.0747 7.63849 38.4274 9.08453 39.8734L9.12489 39.9138C9.82538 40.6142 10.7568 41 11.7474 41C12.7381 41 13.6694 40.6142 14.3699 39.9138L21.4615 32.8226C21.6266 32.6577 21.7193 32.4338 21.7193 32.2004C21.7193 31.9671 21.6266 31.7432 21.4615 31.5783L20.0633 30.1802L22.3894 27.8543C23.73 28.9922 25.3245 29.7816 27.0491 30.1519C27.1114 30.1653 27.1736 30.1716 27.2347 30.1716C27.6406 30.1716 28.0056 29.8891 28.0943 29.4762C28.1962 29.001 27.8938 28.5331 27.4186 28.4311Z" fill="white"/>
</mask>
<g mask="url(#mask0)">
<circle id="Oval Copy 2" cx="26.8077" cy="28.8077" r="4.80769" fill="#D71C54"/>
<circle id="Oval Copy_2" cx="10.7692" cy="29.7692" r="5.76923" fill="#05B9FC"/>
</g>
</g>
<g id="cancel">
<g id="Oval_2">
<path id="Mask_3" fill-rule="evenodd" clip-rule="evenodd" d="M29 32.9727C29 29.1279 32.1825 26 36.0273 26C39.8721 26 43 29.1279 43 32.9727C43 36.8175 39.8721 40 36.0273 40C32.1825 40 29 36.8175 29 32.9727ZM39.4787 36.4243C39.7986 36.1041 39.7986 35.5837 39.4787 35.2638L37.1873 32.9727L39.4787 30.6813C39.7986 30.3611 39.7986 29.8407 39.4787 29.5208C39.1579 29.2003 38.6376 29.2014 38.3182 29.5208L36.0273 31.8127L33.6815 29.5208C33.3616 29.2009 32.8413 29.2009 32.5211 29.5208C32.2011 29.8407 32.2011 30.3611 32.5211 30.6813L34.8125 32.9727L32.5211 35.2641C32.2011 35.5843 32.2011 36.1046 32.5211 36.4245C32.8413 36.7445 33.3616 36.7445 33.6815 36.4245L36.0273 34.1326L38.3182 36.4243C38.6409 36.7466 39.1612 36.7414 39.4787 36.4243Z" fill="#DEDBDB"/>
<mask id="mask1" mask-type="alpha" maskUnits="userSpaceOnUse" x="29" y="26" width="14" height="14">
<path id="Mask_4" fill-rule="evenodd" clip-rule="evenodd" d="M29 32.9727C29 29.1279 32.1825 26 36.0273 26C39.8721 26 43 29.1279 43 32.9727C43 36.8175 39.8721 40 36.0273 40C32.1825 40 29 36.8175 29 32.9727ZM39.4787 36.4243C39.7986 36.1041 39.7986 35.5837 39.4787 35.2638L37.1873 32.9727L39.4787 30.6813C39.7986 30.3611 39.7986 29.8407 39.4787 29.5208C39.1579 29.2003 38.6376 29.2014 38.3182 29.5208L36.0273 31.8127L33.6815 29.5208C33.3616 29.2009 32.8413 29.2009 32.5211 29.5208C32.2011 29.8407 32.2011 30.3611 32.5211 30.6813L34.8125 32.9727L32.5211 35.2641C32.2011 35.5843 32.2011 36.1046 32.5211 36.4245C32.8413 36.7445 33.3616 36.7445 33.6815 36.4245L36.0273 34.1326L38.3182 36.4243C38.6409 36.7466 39.1612 36.7414 39.4787 36.4243Z" fill="white"/>
</mask>
<g mask="url(#mask1)">
<circle id="Oval_3" cx="43.3269" cy="33.3269" r="4.32692" fill="#FEB715"/>
</g>
</g>
</g>
</g>
</g>
</svg>
