<svg xmlns="http://www.w3.org/2000/svg" width="25" height="24" viewBox="0 0 25 24">
    <defs>
        <linearGradient id="a" x1="50%" x2="50%" y1="17.381%" y2="151.163%">
            <stop offset="0%" stop-color="#C768E0"/>
            <stop offset="100%" stop-color="#67006E"/>
        </linearGradient>
    </defs>
    <g fill="none" fill-rule="evenodd">
        <path fill="url(#a)" fill-rule="nonzero" d="M22.6 11.578c1.32 0 2.4 1.082 2.4 2.404v9.614A2.409 2.409 0 0 1 22.6 26H3.4C2.08 26 1 24.918 1 23.596v-9.614a2.409 2.409 0 0 1 2.4-2.404h19.2zm-4.882 10.286H7.884c-.21 0-.38.18-.38.401v.963c0 .222.17.402.38.402h9.834c.21 0 .38-.18.38-.402v-.963a.391.391 0 0 0-.38-.4zM12.78 14c-.44 0-.799.378-.799.843 0 .232.09.443.235.595l-1.721 2.407c-.267.373-.69.595-1.135.595-.376 0-.743-.161-1.008-.443l-1.047-1.113a.86.86 0 0 0 .292-.65c0-.465-.358-.843-.799-.843-.44 0-.798.378-.798.843a.84.84 0 0 0 .559.803c-.003.04 0 .082.01.123l.836 3.544a.385.385 0 0 0 .37.304h5.02l5.018-.027a.385.385 0 0 0 .367-.303l.836-3.531c.01-.04.012-.08.01-.12a.841.841 0 0 0 .534-.793c0-.465-.358-.843-.799-.843-.44 0-.798.378-.798.843a.86.86 0 0 0 .298.655l-1.054 1.112a1.374 1.374 0 0 1-1.003.44c-.446 0-.87-.226-1.138-.602l-1.708-2.413-.002-.002a.864.864 0 0 0 .222-.581c0-.465-.358-.843-.798-.843zm9.82-7.193v2.404H3.4V6.807h19.2zM20.2 2v2.404H5.8V2h14.4z" transform="translate(-.5 -2)"/>
        <path d="M-.5-2h26v26h-26z"/>
    </g>
</svg>
