<?xml version="1.0" encoding="UTF-8"?>
<svg width="18px" height="6px" viewBox="0 0 18 6" version="1.1" xmlns="http://www.w3.org/2000/svg" xmlns:xlink="http://www.w3.org/1999/xlink">
    <!-- Generator: sketchtool 58 (101010) - https://sketch.com -->
    <title>A4BCCFC0-7FFF-4B8A-A84B-A0AA4E76ABAA</title>
    <desc>Created with sketchtool.</desc>
    <defs>
        <linearGradient x1="50%" y1="0%" x2="50%" y2="100%" id="linearGradient-1">
            <stop stop-color="#DBD9DA" offset="0%"></stop>
            <stop stop-color="#B4B2B3" offset="100%"></stop>
        </linearGradient>
    </defs>
    <g id="Home" stroke="none" stroke-width="1" fill="none" fill-rule="evenodd">
        <g id="1.C.op3.1.-Home" transform="translate(-266.000000, -280.000000)">
            <g id="Group-25" transform="translate(261.000000, 269.000000)">
                <g id="more_horiz-24px" transform="translate(0.775510, 0.775510)">
                    <polygon id="Path" points="0 0 26.3265306 0 26.3265306 26.3265306 0 26.3265306"></polygon>
                    <path d="M6.58163265,10.9693878 C5.375,10.9693878 4.3877551,11.9566327 4.3877551,13.1632653 C4.3877551,14.369898 5.375,15.3571429 6.58163265,15.3571429 C7.78826531,15.3571429 8.7755102,14.369898 8.7755102,13.1632653 C8.7755102,11.9566327 7.78826531,10.9693878 6.58163265,10.9693878 Z M19.744898,10.9693878 C18.5382653,10.9693878 17.5510204,11.9566327 17.5510204,13.1632653 C17.5510204,14.369898 18.5382653,15.3571429 19.744898,15.3571429 C20.9515306,15.3571429 21.9387755,14.369898 21.9387755,13.1632653 C21.9387755,11.9566327 20.9515306,10.9693878 19.744898,10.9693878 Z M13.1632653,10.9693878 C11.9566327,10.9693878 10.9693878,11.9566327 10.9693878,13.1632653 C10.9693878,14.369898 11.9566327,15.3571429 13.1632653,15.3571429 C14.369898,15.3571429 15.3571429,14.369898 15.3571429,13.1632653 C15.3571429,11.9566327 14.369898,10.9693878 13.1632653,10.9693878 Z" id="Shape" fill="url(#linearGradient-1)" fill-rule="nonzero"></path>
                </g>
            </g>
        </g>
    </g>
</svg>