<svg xmlns="http://www.w3.org/2000/svg" width="24" height="24" viewBox="0 0 24 24">
    <defs>
        <radialGradient id="a" cy="0%" r="100%" fx="50%" fy="0%">
            <stop offset="0%" stop-color="#FD9D00"/>
            <stop offset="100%" stop-color="#FA6400"/>
        </radialGradient>
        <radialGradient id="b" cy="0%" r="100%" fx="50%" fy="0%" gradientTransform="matrix(0 1 -.2439 0 .5 -.5)">
            <stop offset="0%" stop-color="#FD9D00"/>
            <stop offset="100%" stop-color="#FA6400"/>
        </radialGradient>
        <radialGradient id="c" cy="0%" r="100%" fx="50%" fy="0%" gradientTransform="matrix(0 1 -.14084 0 .5 -.5)">
            <stop offset="0%" stop-color="#FD9D00"/>
            <stop offset="100%" stop-color="#FA6400"/>
        </radialGradient>
    </defs>
    <g fill="none" fill-rule="nonzero">
        <path fill="url(#a)" d="M22.835 5.899H18.62V.843A.843.843 0 0 0 17.78 0H.925a.843.843 0 0 0-.842.843v19.381a3.37 3.37 0 0 0 3.37 3.371h16.854a3.37 3.37 0 0 0 3.37-3.37V6.74a.843.843 0 0 0-.842-.842zM3.453 21.909c-.93 0-1.685-.754-1.685-1.685V1.685h15.168v18.54a3.332 3.332 0 0 0 .09.747c.042.19.1.378.174.558 0 .009.008.016.012.024.052.122.11.24.177.356H3.453zm18.54-1.685a1.685 1.685 0 0 1-3.372 0V7.584h3.371v12.64z"/>
        <path fill="url(#b)" d="M11.942 4.29H6.868a.836.836 0 0 0-.845.825c0 .456.378.825.845.825h5.074c.467 0 .846-.37.846-.825a.836.836 0 0 0-.846-.825z"/>
        <path fill="url(#c)" d="M14.426 8.415H4.384a.831.831 0 0 0-.836.825c0 .456.374.825.836.825h10.042c.462 0 .837-.37.837-.825a.831.831 0 0 0-.837-.825zM14.426 11.88H4.384a.831.831 0 0 0-.836.825c0 .456.374.825.836.825h10.042c.462 0 .837-.37.837-.825a.831.831 0 0 0-.837-.825zM14.426 15.18H4.384a.831.831 0 0 0-.836.825c0 .456.374.825.836.825h10.042c.462 0 .837-.37.837-.825a.831.831 0 0 0-.837-.825zM14.426 18.48H4.384a.831.831 0 0 0-.836.825c0 .456.374.825.836.825h10.042c.462 0 .837-.37.837-.825a.83.83 0 0 0-.837-.825z"/>
    </g>
</svg>
