<svg xmlns="http://www.w3.org/2000/svg" width="8" height="7" viewBox="0 0 8 7">
    <defs>
        <linearGradient id="mkkj6s0r8a" x1="0%" x2="94.669%" y1="14.334%" y2="88.624%">
            <stop offset="0%" stop-color="#02BCFF"/>
            <stop offset="100%" stop-color="#F78105"/>
        </linearGradient>
        <linearGradient id="2qyxrv3nfb" x1="0%" x2="94.669%" y1="3.829%" y2="100%">
            <stop offset="0%" stop-color="#02BCFF"/>
            <stop offset="100%" stop-color="#F78105"/>
        </linearGradient>
        <linearGradient id="6hg2yi430c" x1="0%" x2="94.669%" y1="16.078%" y2="86.735%">
            <stop offset="0%" stop-color="#02BCFF"/>
            <stop offset="100%" stop-color="#F78105"/>
        </linearGradient>
        <linearGradient id="w1f8d50i7d" x1="0%" x2="94.669%" y1="45.845%" y2="54.5%">
            <stop offset="0%" stop-color="#02BCFF"/>
            <stop offset="100%" stop-color="#F78105"/>
        </linearGradient>
    </defs>
    <g fill="none">
        <path fill="url(#mkkj6s0r8a)" d="M7.383 2.957c-.064-.04-.145-.044-.213-.01l-1.468.722v-.233c0-.343-.215-.636-.518-.752.318-.281.518-.692.518-1.149C5.702.69 5.014 0 4.167 0 3.61 0 3.12.3 2.851.745 2.582.3 2.093 0 1.535 0 .69 0 0 .689 0 1.535c0 .457.2.868.518 1.15C.216 2.8 0 3.092 0 3.435v2.34c0 .443.36.804.804.804h4.094c.444 0 .804-.361.804-.804v-.233l1.468.722c.03.015.064.022.097.022.04 0 .08-.01.116-.033.064-.04.103-.11.103-.186V3.144c0-.076-.039-.147-.103-.187zM4.167.44c.605 0 1.097.492 1.097 1.096 0 .605-.492 1.097-1.097 1.097S3.071 2.14 3.071 1.535C3.07.931 3.562.44 4.167.44zM3.094 2.632h-.485c.093-.091.174-.194.242-.307.068.113.15.216.243.307zM.439 1.535C.439.931.93.44 1.535.44c.605 0 1.097.492 1.097 1.096 0 .605-.492 1.097-1.097 1.097C.931 2.632.44 2.14.44 1.535zm4.825 4.24c0 .202-.164.366-.366.366H.804c-.201 0-.365-.164-.365-.365v-2.34c0-.201.164-.365.365-.365h4.094c.202 0 .366.164.366.365v2.34zm1.784-.06l-1.346-.66v-.898l1.346-.661v2.22z"/>
        <path fill="url(#2qyxrv3nfb)" d="M1.535 2.193c.363 0 .658-.295.658-.658 0-.363-.295-.658-.658-.658-.363 0-.658.295-.658.658 0 .363.295.658.658.658zm0-.877c.121 0 .22.098.22.22 0 .12-.099.219-.22.219-.12 0-.22-.099-.22-.22 0-.12.1-.22.22-.22zM4.167 2.193c.363 0 .658-.295.658-.658 0-.363-.295-.658-.658-.658-.363 0-.658.295-.658.658 0 .363.295.658.658.658zm0-.877c.121 0 .22.098.22.22 0 .12-.099.219-.22.219-.12 0-.22-.099-.22-.22 0-.12.1-.22.22-.22z"/>
        <path fill="url(#6hg2yi430c)" d="M4.606 3.51H2.997c-.12 0-.219.097-.219.218v1.316c0 .122.098.22.22.22h1.608c.12 0 .22-.098.22-.22V3.728c0-.12-.1-.219-.22-.219zm-.22 1.315h-1.17v-.877h1.17v.877z"/>
        <path fill="url(#w1f8d50i7d)" d="M2.12 5.264H1.097c-.122 0-.22.098-.22.22 0 .12.098.218.22.218H2.12c.121 0 .22-.098.22-.219s-.099-.22-.22-.22zM2.12 4.386H1.097c-.122 0-.22.099-.22.22 0 .12.098.22.22.22H2.12c.121 0 .22-.1.22-.22 0-.121-.099-.22-.22-.22z"/>
    </g>
</svg>
