<svg width="20" height="21" viewBox="0 0 20 21" fill="none" xmlns="http://www.w3.org/2000/svg">
<path fill-rule="evenodd" clip-rule="evenodd" d="M3.33325 18.3122V4.24997C3.33325 3.69745 3.56738 3.16756 3.98413 2.77687C4.40087 2.38618 4.9661 2.16669 5.55547 2.16669H14.4444C15.0337 2.16669 15.599 2.38618 16.0157 2.77687C16.4325 3.16756 16.6666 3.69745 16.6666 4.24997V18.3122C16.6667 18.4026 16.6416 18.4915 16.5939 18.5701C16.5462 18.6487 16.4775 18.7143 16.3945 18.7605C16.3115 18.8066 16.2171 18.8317 16.1207 18.8333C16.0242 18.8349 15.929 18.8128 15.8444 18.7694L9.99992 15.7799L4.15547 18.7694C4.07084 18.8128 3.97561 18.8349 3.87915 18.8333C3.78269 18.8317 3.68833 18.8066 3.60535 18.7605C3.52238 18.7143 3.45366 18.6487 3.40595 18.5701C3.35823 18.4915 3.33318 18.4026 3.33325 18.3122ZM7.7577 8.22521C7.37159 7.83032 6.74558 7.83032 6.35947 8.22521C5.97336 8.6201 5.97336 9.26033 6.35947 9.65522L8.55989 11.9057C8.94601 12.3005 9.57202 12.3005 9.95813 11.9057L14.359 7.40479C14.7451 7.0099 14.7451 6.36966 14.359 5.97477C13.9729 5.57989 13.3469 5.57989 12.9607 5.97477L9.25901 9.76064L7.7577 8.22521Z" fill="#E7A921"/>
</svg>
