<svg width="14" height="17" viewBox="0 0 14 17" fill="none" xmlns="http://www.w3.org/2000/svg">
<path fill-rule="evenodd" clip-rule="evenodd" d="M0.333252 16.3121V2.24991C0.333252 1.69739 0.567378 1.1675 0.984126 0.776806C1.40087 0.386114 1.9661 0.166626 2.55547 0.166626H11.4444C12.0337 0.166626 12.599 0.386114 13.0157 0.776806C13.4325 1.1675 13.6666 1.69739 13.6666 2.24991V16.3121C13.6667 16.4025 13.6416 16.4914 13.5939 16.57C13.5462 16.6487 13.4775 16.7143 13.3945 16.7604C13.3115 16.8065 13.2171 16.8316 13.1207 16.8332C13.0242 16.8348 12.929 16.8128 12.8444 16.7694L6.99992 13.7799L1.15547 16.7694C1.07084 16.8128 0.975606 16.8348 0.879146 16.8332C0.782687 16.8316 0.688326 16.8065 0.605354 16.7604C0.522382 16.7143 0.453657 16.6487 0.405946 16.57C0.358235 16.4914 0.333182 16.4025 0.333252 16.3121ZM6.99992 2.9545C7.5522 2.9545 7.99992 3.40222 7.99992 3.9545V5.98479H9.96289C10.5152 5.98479 10.9629 6.43251 10.9629 6.98479C10.9629 7.53708 10.5152 7.98479 9.96289 7.98479H7.99992V10.0151C7.99992 10.5674 7.5522 11.0151 6.99992 11.0151C6.44763 11.0151 5.99992 10.5674 5.99992 10.0151V7.98479H4.03696C3.48468 7.98479 3.03696 7.53708 3.03696 6.98479C3.03696 6.43251 3.48468 5.98479 4.03696 5.98479H5.99992V3.9545C5.99992 3.40222 6.44763 2.9545 6.99992 2.9545Z" fill="#D8D8D8"/>
</svg>
