<svg width="20" height="21" viewBox="0 0 20 21" fill="none" xmlns="http://www.w3.org/2000/svg">
<mask id="mask0_669_528" style="mask-type:alpha" maskUnits="userSpaceOnUse" x="0" y="0" width="20" height="21">
<rect y="0.5" width="20" height="20" fill="#C4C4C4"/>
</mask>
<g mask="url(#mask0_669_528)">
<path d="M16.168 6.88674C16.5187 6.88674 16.7619 6.5384 16.6304 6.21897C16.1634 5.08482 15.0308 4.28257 13.7109 4.28257H13.1008C12.8733 3.10181 11.8195 2.16669 10.5301 2.16669H9.46977C8.18115 2.16669 7.12669 3.10119 6.89902 4.28257H6.28889C4.96902 4.28257 3.83643 5.08482 3.36947 6.21897C3.23796 6.5384 3.48113 6.88674 3.83186 6.88674H16.168ZM9.46977 3.14325H10.5301C11.2557 3.14325 11.8717 3.62287 12.079 4.28257H7.92081C8.12817 3.62287 8.74413 3.14325 9.46977 3.14325Z" fill="white"/>
<path d="M5.19704 17.4725C5.25234 18.2356 5.90564 18.8333 6.6843 18.8333H13.3151C14.0938 18.8333 14.7471 18.2356 14.8024 17.4725L15.499 7.86328H4.50049L5.19704 17.4725ZM11.3589 10.4756C11.3726 10.2063 11.6063 9.99857 11.8801 10.0123C12.1542 10.0258 12.3654 10.2551 12.3516 10.5244L12.0866 15.7327C12.0733 15.9938 11.8537 16.1966 11.5906 16.1966C11.3044 16.1966 11.0796 15.9615 11.0938 15.684L11.3589 10.4756ZM8.1194 10.0123C8.39319 9.99883 8.62692 10.2063 8.6406 10.4756L8.90568 15.684C8.91979 15.9616 8.69488 16.1966 8.40886 16.1966C8.14578 16.1966 7.92617 15.9938 7.91288 15.7327L7.64781 10.5244C7.63412 10.2551 7.84525 10.0258 8.1194 10.0123Z" fill="white"/>
</g>
</svg>
