<svg width="20" height="21" viewBox="0 0 20 21" fill="none" xmlns="http://www.w3.org/2000/svg">
<mask id="mask0_669_523" style="mask-type:alpha" maskUnits="userSpaceOnUse" x="0" y="0" width="20" height="21">
<rect y="0.5" width="20" height="20" fill="#C4C4C4"/>
</mask>
<g mask="url(#mask0_669_523)">
<path fill-rule="evenodd" clip-rule="evenodd" d="M10.0001 2.16663C5.40008 2.16663 1.66675 5.89996 1.66675 10.5C1.66675 15.1 5.40008 18.8333 10.0001 18.8333C14.6001 18.8333 18.3334 15.1 18.3334 10.5C18.3334 5.89996 14.6001 2.16663 10.0001 2.16663ZM8.838 14.4152C8.49427 14.7504 7.95139 14.7504 7.60765 14.4152L4.43357 11.3203C4.07773 10.9733 4.07773 10.3953 4.43357 10.0483C4.7691 9.72114 5.29891 9.72076 5.6349 10.0475L7.60769 11.9657C7.95154 12.3001 8.49375 12.2997 8.83715 11.9648L14.3601 6.57961C14.6978 6.25032 15.2314 6.25128 15.5679 6.58177C15.9227 6.93016 15.9217 7.50811 15.5657 7.85522L8.838 14.4152Z" fill="#0079FF"/>
</g>
</svg>
