<svg width="20" height="21" viewBox="0 0 20 21" fill="none" xmlns="http://www.w3.org/2000/svg">
<mask id="mask0_973_1708" style="mask-type:alpha" maskUnits="userSpaceOnUse" x="0" y="0" width="20" height="21">
<rect y="0.5" width="20" height="20" fill="#C4C4C4"/>
</mask>
<g mask="url(#mask0_973_1708)">
<path d="M10.0001 13.1668C9.85778 13.1668 9.72167 13.1108 9.62376 13.0121L5.97792 9.3454C5.66195 9.02807 5.89667 8.50007 6.35431 8.50007H8.26403V4.66671C8.26403 4.20738 8.65362 3.83337 9.13209 3.83337H10.8682C11.3467 3.83337 11.7363 4.20738 11.7363 4.66671V8.50007H13.646C14.1036 8.50007 14.3383 9.02807 14.0224 9.3454L10.3765 13.0121C10.2786 13.1108 10.1425 13.1668 10.0001 13.1668Z" fill="white"/>
<path d="M17.1181 17.1667H2.88203C2.21189 17.1667 1.66675 16.6433 1.66675 16V15.6667C1.66675 15.0233 2.21189 14.5 2.88203 14.5H17.1181C17.7883 14.5 18.3334 15.0233 18.3334 15.6667V16C18.3334 16.6433 17.7883 17.1667 17.1181 17.1667Z" fill="white"/>
</g>
</svg>
