<svg width="12" height="12" viewBox="0 0 12 12" fill="none" xmlns="http://www.w3.org/2000/svg">
<mask id="mask0_26_2268" style="mask-type:alpha" maskUnits="userSpaceOnUse" x="0" y="0" width="12" height="12">
<rect width="12" height="12" fill="#C4C4C4"/>
</mask>
<g mask="url(#mask0_26_2268)">
<path d="M1.75 5.76197C1.75 4.68847 2.19777 3.65894 2.9948 2.89987C3.79183 2.14079 4.87283 1.71435 6 1.71435C7.12717 1.71435 8.20817 2.14079 9.0052 2.89987C9.80223 3.65894 10.25 4.68847 10.25 5.76197V6.71435H9.125C9.02554 6.71435 8.93016 6.75197 8.85984 6.81895C8.78951 6.88593 8.75 6.97677 8.75 7.07149V10.1667C8.75 10.3639 8.918 10.5239 9.125 10.5239H9.5C9.89782 10.5239 10.2794 10.3734 10.5607 10.1055C10.842 9.83754 11 9.47418 11 9.0953V5.76197C11 3.13197 8.7615 1.00006 6 1.00006C3.2385 1.00006 1 3.13197 1 5.76197V9.0953C1 9.47418 1.15804 9.83754 1.43934 10.1055C1.72064 10.3734 2.10218 10.5239 2.5 10.5239H2.875C2.97446 10.5239 3.06984 10.4862 3.14017 10.4193C3.21049 10.3523 3.25 10.2614 3.25 10.1667V7.07149C3.25 6.97677 3.21049 6.88593 3.14017 6.81895C3.06984 6.75197 2.97446 6.71435 2.875 6.71435H1.75V5.76197ZM6.375 5.64292C6.375 5.5482 6.33549 5.45736 6.26517 5.39038C6.19484 5.3234 6.09946 5.28578 6 5.28578C5.90054 5.28578 5.80516 5.3234 5.73484 5.39038C5.66451 5.45736 5.625 5.5482 5.625 5.64292V10.6429C5.625 10.7376 5.66451 10.8285 5.73484 10.8955C5.80516 10.9624 5.90054 11.0001 6 11.0001C6.09946 11.0001 6.19484 10.9624 6.26517 10.8955C6.33549 10.8285 6.375 10.7376 6.375 10.6429V5.64292ZM4.375 6.71435C4.47446 6.71435 4.56984 6.75197 4.64017 6.81895C4.71049 6.88593 4.75 6.97677 4.75 7.07149V9.21435C4.75 9.30907 4.71049 9.39991 4.64017 9.46689C4.56984 9.53386 4.47446 9.57149 4.375 9.57149C4.27554 9.57149 4.18016 9.53386 4.10984 9.46689C4.03951 9.39991 4 9.30907 4 9.21435V7.07149C4 6.97677 4.03951 6.88593 4.10984 6.81895C4.18016 6.75197 4.27554 6.71435 4.375 6.71435ZM8 7.07149C8 6.97677 7.96049 6.88593 7.89016 6.81895C7.81984 6.75197 7.72446 6.71435 7.625 6.71435C7.52554 6.71435 7.43016 6.75197 7.35984 6.81895C7.28951 6.88593 7.25 6.97677 7.25 7.07149V9.21435C7.25 9.30907 7.28951 9.39991 7.35984 9.46689C7.43016 9.53386 7.52554 9.57149 7.625 9.57149C7.72446 9.57149 7.81984 9.53386 7.89016 9.46689C7.96049 9.39991 8 9.30907 8 9.21435V7.07149Z" fill="#8F8F8F"/>
</g>
</svg>
