<svg width="40" height="40" viewBox="0 0 40 40" fill="none" xmlns="http://www.w3.org/2000/svg">
<mask id="mask0_669_535" style="mask-type:alpha" maskUnits="userSpaceOnUse" x="0" y="0" width="40" height="40">
<rect width="40" height="40" fill="#C4C4C4"/>
</mask>
<g mask="url(#mask0_669_535)">
<path d="M19.9999 36.6666C29.2047 36.6666 36.6666 29.2047 36.6666 20C36.6666 10.7952 29.2047 3.33331 19.9999 3.33331C10.7952 3.33331 3.33325 10.7952 3.33325 20C3.33325 29.2047 10.7952 36.6666 19.9999 36.6666Z" fill="#60C2A5"/>
<path d="M15.238 15.3893V24.619C15.238 25.6107 16.2333 26.2536 17.1238 25.8095L26.4321 21.1988C27.3797 20.6988 27.3797 19.3095 26.4321 18.8178L17.1238 14.2083C16.9249 14.1048 16.7261 14.0476 16.4797 14.0476C15.788 14.0952 15.238 14.6428 15.238 15.3893Z" fill="white"/>
</g>
</svg>
