<svg width="20" height="21" viewBox="0 0 20 21" fill="none" xmlns="http://www.w3.org/2000/svg">
<mask id="mask0_669_520" style="mask-type:alpha" maskUnits="userSpaceOnUse" x="0" y="0" width="20" height="21">
<rect y="0.5" width="20" height="20" fill="#C4C4C4"/>
</mask>
<g mask="url(#mask0_669_520)">
<path d="M18.1802 9.27381L12.0398 3.94013C11.9105 3.82729 11.728 3.80167 11.5713 3.87371C11.4158 3.94622 11.316 4.10377 11.316 4.2774V7.39481C6.41511 7.53286 4.05078 9.99131 2.92688 12.0631C1.94944 13.864 1.73015 15.647 1.68089 16.3789C1.67148 16.4909 1.66675 16.605 1.66675 16.7214V16.7355L1.66716 16.7368V16.7454L1.66757 16.7467V16.7523L1.66798 16.754V16.7579L1.66839 16.7597V16.7635L1.6688 16.7648V16.7678L1.66922 16.7691V16.7717L1.66963 16.773V16.7756L1.67004 16.7769V16.7782C1.69746 16.9973 1.88205 17.1666 2.1052 17.1666C2.34718 17.1666 2.54336 16.9683 2.54381 16.723C2.54381 16.7004 2.54422 16.6449 2.54809 16.5607C2.73954 12.8647 9.47748 12.0261 11.3158 11.866V14.9443C11.3158 15.1179 11.4156 15.2755 11.5711 15.348C11.7274 15.42 11.9095 15.3949 12.0397 15.2816L18.1801 9.94789C18.2773 9.86368 18.3334 9.74042 18.3334 9.61062C18.3336 9.48128 18.2775 9.35802 18.1802 9.27381Z" fill="white"/>
</g>
</svg>
