<svg width="30" height="20" viewBox="0 0 48 20" fill="none" xmlns="http://www.w3.org/2000/svg">
  <path d="M12.9266 10.5987L21.8151 19.0849C22.0711 19.3275 22.4497 19.4005 22.7839 19.2681C23.1164 19.1375 23.3333 18.8269 23.3333 18.4842L23.3333 1.51516C23.3333 1.17238 23.1164 0.861849 22.7839 0.731188C22.6737 0.688765 22.5582 0.666706 22.4444 0.666706C22.2133 0.666706 21.9858 0.753248 21.8151 0.914454L12.9266 9.39896C12.5799 9.72985 12.5799 10.2678 12.9266 10.5987Z" fill="white"/>
  <path d="M0.926575 10.6004L9.81509 19.0849C10.0693 19.3275 10.4497 19.4005 10.7839 19.2681C11.1164 19.1375 11.3333 18.8269 11.3333 18.4842V1.51516C11.3333 1.17238 11.1164 0.861849 10.7839 0.731188C10.6737 0.688765 10.5582 0.666706 10.4444 0.666706C10.2133 0.666706 9.98575 0.753248 9.81509 0.914454L0.926575 9.39896C0.579922 9.73155 0.579922 10.2678 0.926575 10.6004Z" fill="white"/>
  <path d="M36.9266 10.5987L45.8151 19.0849C46.0711 19.3275 46.4497 19.4005 46.7839 19.2681C47.1164 19.1375 47.3333 18.8269 47.3333 18.4842V1.51516C47.3333 1.17238 47.1164 0.861849 46.7839 0.731188C46.6737 0.688765 46.5582 0.666706 46.4444 0.666706C46.2133 0.666706 45.9858 0.753248 45.8151 0.914454L36.9266 9.39896C36.5799 9.72985 36.5799 10.2678 36.9266 10.5987Z" fill="white"/>
  <path d="M24.9266 10.6004L33.8151 19.0849C34.0693 19.3275 34.4497 19.4005 34.7839 19.2681C35.1164 19.1375 35.3333 18.8269 35.3333 18.4842V1.51516C35.3333 1.17238 35.1164 0.861849 34.7839 0.731188C34.6737 0.688765 34.5582 0.666706 34.4444 0.666706C34.2133 0.666706 33.9858 0.753248 33.8151 0.914454L24.9266 9.39896C24.5799 9.73155 24.5799 10.2678 24.9266 10.6004Z" fill="white"/>
</svg>
