<svg width="40" height="40" viewBox="0 0 56 56" fill="none" xmlns="http://www.w3.org/2000/svg">
  <mask id="mask0" mask-type="alpha" maskUnits="userSpaceOnUse" x="0" y="0" width="56" height="56">
    <rect width="56" height="56" fill="#C4C4C4"/>
  </mask>
  <g mask="url(#mask0)">
    <path d="M39.0733 27.4014L30.1848 18.9152C29.9288 18.6725 29.5501 18.5996 29.2159 18.7319C28.8835 18.8626 28.6666 19.1731 28.6666 19.5159V36.4849C28.6666 36.8277 28.8835 37.1382 29.2159 37.2689C29.3262 37.3113 29.4417 37.3334 29.5555 37.3334C29.7866 37.3334 30.0141 37.2468 30.1848 37.0856L39.0733 28.6011C39.42 28.2702 39.42 27.7323 39.0733 27.4014Z" fill="white"/>
    <path d="M51.0733 27.3997L42.1848 18.9152C41.9306 18.6725 41.5502 18.5996 41.2159 18.7319C40.8835 18.8626 40.6666 19.1731 40.6666 19.5159V36.4849C40.6666 36.8277 40.8835 37.1382 41.2159 37.2689C41.3262 37.3113 41.4417 37.3334 41.5555 37.3334C41.7866 37.3334 42.0141 37.2468 42.1848 37.0856L51.0733 28.6011C51.42 28.2685 51.42 27.7323 51.0733 27.3997Z" fill="white"/>
    <path d="M15.0733 27.4014L6.18479 18.9152C5.9288 18.6725 5.55014 18.5996 5.21594 18.7319C4.88351 18.8626 4.66663 19.1731 4.66663 19.5159V36.4849C4.66663 36.8277 4.88351 37.1382 5.21594 37.2689C5.32615 37.3113 5.4417 37.3334 5.55548 37.3334C5.78658 37.3334 6.01413 37.2468 6.18479 37.0856L15.0733 28.6011C15.42 28.2702 15.42 27.7323 15.0733 27.4014Z" fill="white"/>
    <path d="M27.0733 27.3997L18.1848 18.9152C17.9306 18.6725 17.5501 18.5996 17.2159 18.7319C16.8835 18.8626 16.6666 19.1731 16.6666 19.5159V36.4849C16.6666 36.8277 16.8835 37.1382 17.2159 37.2689C17.3262 37.3113 17.4417 37.3334 17.5555 37.3334C17.7866 37.3334 18.0141 37.2468 18.1848 37.0856L27.0733 28.6011C27.42 28.2685 27.42 27.7323 27.0733 27.3997Z" fill="white"/>
  </g>
  <path d="M4.80859 53H3.66113V48.3906C3.66113 47.8405 3.67415 47.4043 3.7002 47.082C3.62533 47.1602 3.53255 47.2464 3.42188 47.3408C3.31445 47.4352 2.94987 47.7347 2.32812 48.2393L1.75195 47.5117L3.85156 45.8613H4.80859V53ZM11.9912 49.4307C11.9912 50.6709 11.791 51.5921 11.3906 52.1943C10.9935 52.7965 10.3848 53.0977 9.56445 53.0977C8.77018 53.0977 8.16797 52.7868 7.75781 52.165C7.34766 51.5433 7.14258 50.6318 7.14258 49.4307C7.14258 48.1709 7.34115 47.2432 7.73828 46.6475C8.13867 46.0485 8.7474 45.749 9.56445 45.749C10.362 45.749 10.9658 46.0615 11.376 46.6865C11.7861 47.3115 11.9912 48.2262 11.9912 49.4307ZM8.30469 49.4307C8.30469 50.404 8.40397 51.099 8.60254 51.5156C8.80436 51.9323 9.125 52.1406 9.56445 52.1406C10.0039 52.1406 10.3245 51.929 10.5264 51.5059C10.7314 51.0827 10.834 50.391 10.834 49.4307C10.834 48.4736 10.7314 47.7819 10.5264 47.3555C10.3245 46.9258 10.0039 46.7109 9.56445 46.7109C9.125 46.7109 8.80436 46.9209 8.60254 47.3408C8.40397 47.7607 8.30469 48.4574 8.30469 49.4307ZM20.082 51.0615C20.082 51.6963 19.8525 52.1943 19.3936 52.5557C18.9346 52.917 18.3014 53.0977 17.4941 53.0977C16.6868 53.0977 16.026 52.9723 15.5117 52.7217V51.6182C15.8372 51.7712 16.1823 51.8916 16.5469 51.9795C16.9147 52.0674 17.2565 52.1113 17.5723 52.1113C18.0345 52.1113 18.3747 52.0234 18.5928 51.8477C18.8141 51.6719 18.9248 51.4359 18.9248 51.1396C18.9248 50.8727 18.8239 50.6465 18.6221 50.4609C18.4202 50.2754 18.0036 50.0557 17.3721 49.8018C16.721 49.5381 16.262 49.237 15.9951 48.8984C15.7282 48.5599 15.5947 48.153 15.5947 47.6777C15.5947 47.082 15.8063 46.6133 16.2295 46.2715C16.6527 45.9297 17.2207 45.7588 17.9336 45.7588C18.6172 45.7588 19.2975 45.9085 19.9746 46.208L19.6035 47.1602C18.9688 46.8932 18.4023 46.7598 17.9043 46.7598C17.5267 46.7598 17.2402 46.8428 17.0449 47.0088C16.8496 47.1715 16.752 47.388 16.752 47.6582C16.752 47.8438 16.791 48.0033 16.8691 48.1367C16.9473 48.2669 17.0758 48.3906 17.2549 48.5078C17.4339 48.625 17.7562 48.7796 18.2217 48.9717C18.7458 49.1898 19.1299 49.3932 19.374 49.582C19.6182 49.7708 19.7972 49.984 19.9111 50.2217C20.0251 50.4593 20.082 50.7393 20.082 51.0615ZM23.7002 53.0977C22.8604 53.0977 22.2028 52.8535 21.7275 52.3652C21.2555 51.8737 21.0195 51.1982 21.0195 50.3389C21.0195 49.4567 21.2393 48.7633 21.6787 48.2588C22.1182 47.7542 22.722 47.502 23.4902 47.502C24.2031 47.502 24.7663 47.7184 25.1797 48.1514C25.5931 48.5843 25.7998 49.18 25.7998 49.9385V50.5586H22.2012C22.2174 51.0827 22.359 51.4863 22.626 51.7695C22.8929 52.0495 23.2689 52.1895 23.7539 52.1895C24.0729 52.1895 24.3691 52.1602 24.6426 52.1016C24.9193 52.0397 25.2155 51.9388 25.5312 51.7988V52.7314C25.2513 52.8649 24.9681 52.9593 24.6816 53.0146C24.3952 53.07 24.068 53.0977 23.7002 53.0977ZM23.4902 48.3711C23.1257 48.3711 22.8327 48.4867 22.6113 48.7178C22.3932 48.9489 22.263 49.2858 22.2207 49.7285H24.6719C24.6654 49.2826 24.5579 48.9456 24.3496 48.7178C24.1413 48.4867 23.8548 48.3711 23.4902 48.3711ZM29.2812 53.0977C28.4642 53.0977 27.8424 52.86 27.416 52.3848C26.9928 51.9062 26.7812 51.221 26.7812 50.3291C26.7812 49.4209 27.0026 48.7227 27.4453 48.2344C27.8913 47.7461 28.5342 47.502 29.374 47.502C29.9437 47.502 30.4564 47.6077 30.9121 47.8193L30.5654 48.7422C30.0804 48.5534 29.68 48.459 29.3643 48.459C28.43 48.459 27.9629 49.0791 27.9629 50.3193C27.9629 50.9248 28.0785 51.3805 28.3096 51.6865C28.5439 51.9893 28.8857 52.1406 29.335 52.1406C29.846 52.1406 30.3294 52.0137 30.7852 51.7598V52.7607C30.5801 52.8812 30.3604 52.9674 30.126 53.0195C29.8949 53.0716 29.6133 53.0977 29.2812 53.0977ZM36.8447 50.29C36.8447 51.1722 36.6185 51.8607 36.166 52.3555C35.7135 52.8503 35.0837 53.0977 34.2764 53.0977C33.7718 53.0977 33.3258 52.9837 32.9385 52.7559C32.5511 52.528 32.2533 52.2008 32.0449 51.7744C31.8366 51.348 31.7324 50.8532 31.7324 50.29C31.7324 49.4144 31.957 48.7308 32.4062 48.2393C32.8555 47.7477 33.4886 47.502 34.3057 47.502C35.0869 47.502 35.7054 47.7542 36.1611 48.2588C36.6169 48.7601 36.8447 49.4372 36.8447 50.29ZM32.9141 50.29C32.9141 51.5368 33.3747 52.1602 34.2959 52.1602C35.2074 52.1602 35.6631 51.5368 35.6631 50.29C35.6631 49.0563 35.2041 48.4395 34.2861 48.4395C33.8044 48.4395 33.4544 48.599 33.2363 48.918C33.0215 49.237 32.9141 49.6943 32.9141 50.29ZM42.9189 53H41.7666V49.6797C41.7666 49.263 41.682 48.9521 41.5127 48.7471C41.3467 48.542 41.0814 48.4395 40.7168 48.4395C40.2318 48.4395 39.877 48.5827 39.6523 48.8691C39.4277 49.1556 39.3154 49.6357 39.3154 50.3096V53H38.168V47.5996H39.0664L39.2275 48.3076H39.2861C39.4489 48.0505 39.68 47.8519 39.9795 47.7119C40.279 47.5719 40.611 47.502 40.9756 47.502C42.2712 47.502 42.9189 48.1611 42.9189 49.4795V53ZM46.3369 53.0977C45.6631 53.0977 45.1374 52.8535 44.7598 52.3652C44.3822 51.877 44.1934 51.1917 44.1934 50.3096C44.1934 49.4242 44.3838 48.7357 44.7646 48.2441C45.1488 47.7493 45.6794 47.502 46.3564 47.502C47.0661 47.502 47.6064 47.764 47.9775 48.2881H48.0361C47.9808 47.9007 47.9531 47.5947 47.9531 47.3701V45.4023H49.1055V53H48.207L48.0068 52.292H47.9531C47.5853 52.8291 47.0465 53.0977 46.3369 53.0977ZM46.6445 52.1699C47.1165 52.1699 47.46 52.0381 47.6748 51.7744C47.8896 51.5075 48.0003 51.0762 48.0068 50.4805V50.3193C48.0068 49.639 47.8962 49.1556 47.6748 48.8691C47.4535 48.5827 47.1068 48.4395 46.6348 48.4395C46.2311 48.4395 45.9202 48.6038 45.7021 48.9326C45.484 49.2581 45.375 49.7236 45.375 50.3291C45.375 50.9281 45.4808 51.3854 45.6924 51.7012C45.904 52.0137 46.2214 52.1699 46.6445 52.1699ZM54.374 51.4619C54.374 51.9893 54.182 52.3945 53.7979 52.6777C53.4137 52.9577 52.8636 53.0977 52.1475 53.0977C51.4281 53.0977 50.8503 52.9886 50.4141 52.7705V51.7793C51.0488 52.0723 51.6396 52.2188 52.1865 52.2188C52.8929 52.2188 53.2461 52.0055 53.2461 51.5791C53.2461 51.4424 53.207 51.3285 53.1289 51.2373C53.0508 51.1462 52.9222 51.0518 52.7432 50.9541C52.5641 50.8564 52.3151 50.7458 51.9961 50.6221C51.3743 50.3812 50.9528 50.1403 50.7314 49.8994C50.5133 49.6585 50.4043 49.346 50.4043 48.9619C50.4043 48.4997 50.5898 48.1416 50.9609 47.8877C51.3353 47.6305 51.8431 47.502 52.4844 47.502C53.1191 47.502 53.7197 47.6305 54.2861 47.8877L53.915 48.752C53.3324 48.5111 52.8424 48.3906 52.4453 48.3906C51.8398 48.3906 51.5371 48.5632 51.5371 48.9082C51.5371 49.0775 51.6152 49.2207 51.7715 49.3379C51.931 49.4551 52.276 49.6162 52.8066 49.8213C53.2526 49.9938 53.5765 50.1517 53.7783 50.2949C53.9801 50.4382 54.1299 50.6042 54.2275 50.793C54.3252 50.9785 54.374 51.2015 54.374 51.4619Z" fill="white"/>
</svg>
