<svg width="40" height="40" viewBox="0 0 56 56" fill="none" xmlns="http://www.w3.org/2000/svg">
  <mask id="mask0" mask-type="alpha" maskUnits="userSpaceOnUse" x="0" y="0" width="56" height="56">
    <rect width="56" height="56" fill="#C4C4C4"/>
  </mask>
  <g mask="url(#mask0)">
    <path d="M16.9266 28.5986L25.8151 37.0848C26.0711 37.3275 26.4497 37.4004 26.7839 37.2681C27.1164 37.1374 27.3333 36.8269 27.3333 36.4841L27.3333 19.5151C27.3333 19.1723 27.1164 18.8618 26.7839 18.7311C26.6737 18.6887 26.5582 18.6666 26.4444 18.6666C26.2133 18.6666 25.9858 18.7532 25.8151 18.9144L16.9266 27.3989C16.5799 27.7298 16.5799 28.2677 16.9266 28.5986Z" fill="white"/>
    <path d="M4.92657 28.6003L13.8151 37.0848C14.0693 37.3275 14.4497 37.4004 14.7839 37.2681C15.1164 37.1374 15.3333 36.8269 15.3333 36.4841V19.5151C15.3333 19.1723 15.1164 18.8618 14.7839 18.7311C14.6737 18.6887 14.5582 18.6666 14.4444 18.6666C14.2133 18.6666 13.9858 18.7532 13.8151 18.9144L4.92657 27.3989C4.57992 27.7315 4.57992 28.2677 4.92657 28.6003Z" fill="white"/>
    <path d="M40.9266 28.5986L49.8151 37.0848C50.0711 37.3275 50.4497 37.4004 50.7839 37.2681C51.1164 37.1374 51.3333 36.8269 51.3333 36.4841V19.5151C51.3333 19.1723 51.1164 18.8618 50.7839 18.7311C50.6737 18.6887 50.5582 18.6666 50.4444 18.6666C50.2133 18.6666 49.9858 18.7532 49.8151 18.9144L40.9266 27.3989C40.5799 27.7298 40.5799 28.2677 40.9266 28.5986Z" fill="white"/>
    <path d="M28.9266 28.6003L37.8151 37.0848C38.0693 37.3275 38.4497 37.4004 38.7839 37.2681C39.1164 37.1374 39.3333 36.8269 39.3333 36.4841V19.5151C39.3333 19.1723 39.1164 18.8618 38.7839 18.7311C38.6737 18.6887 38.5582 18.6666 38.4444 18.6666C38.2133 18.6666 37.9858 18.7532 37.8151 18.9144L28.9266 27.3989C28.5799 27.7315 28.5799 28.2677 28.9266 28.6003Z" fill="white"/>
  </g>
  <path d="M3.80859 53H2.66113V48.3906C2.66113 47.8405 2.67415 47.4043 2.7002 47.082C2.62533 47.1602 2.53255 47.2464 2.42188 47.3408C2.31445 47.4352 1.94987 47.7347 1.32812 48.2393L0.751953 47.5117L2.85156 45.8613H3.80859V53ZM10.9912 49.4307C10.9912 50.6709 10.791 51.5921 10.3906 52.1943C9.99349 52.7965 9.38477 53.0977 8.56445 53.0977C7.77018 53.0977 7.16797 52.7868 6.75781 52.165C6.34766 51.5433 6.14258 50.6318 6.14258 49.4307C6.14258 48.1709 6.34115 47.2432 6.73828 46.6475C7.13867 46.0485 7.7474 45.749 8.56445 45.749C9.36198 45.749 9.96582 46.0615 10.376 46.6865C10.7861 47.3115 10.9912 48.2262 10.9912 49.4307ZM7.30469 49.4307C7.30469 50.404 7.40397 51.099 7.60254 51.5156C7.80436 51.9323 8.125 52.1406 8.56445 52.1406C9.00391 52.1406 9.32454 51.929 9.52637 51.5059C9.73145 51.0827 9.83398 50.391 9.83398 49.4307C9.83398 48.4736 9.73145 47.7819 9.52637 47.3555C9.32454 46.9258 9.00391 46.7109 8.56445 46.7109C8.125 46.7109 7.80436 46.9209 7.60254 47.3408C7.40397 47.7607 7.30469 48.4574 7.30469 49.4307ZM19.082 51.0615C19.082 51.6963 18.8525 52.1943 18.3936 52.5557C17.9346 52.917 17.3014 53.0977 16.4941 53.0977C15.6868 53.0977 15.026 52.9723 14.5117 52.7217V51.6182C14.8372 51.7712 15.1823 51.8916 15.5469 51.9795C15.9147 52.0674 16.2565 52.1113 16.5723 52.1113C17.0345 52.1113 17.3747 52.0234 17.5928 51.8477C17.8141 51.6719 17.9248 51.4359 17.9248 51.1396C17.9248 50.8727 17.8239 50.6465 17.6221 50.4609C17.4202 50.2754 17.0036 50.0557 16.3721 49.8018C15.721 49.5381 15.262 49.237 14.9951 48.8984C14.7282 48.5599 14.5947 48.153 14.5947 47.6777C14.5947 47.082 14.8063 46.6133 15.2295 46.2715C15.6527 45.9297 16.2207 45.7588 16.9336 45.7588C17.6172 45.7588 18.2975 45.9085 18.9746 46.208L18.6035 47.1602C17.9688 46.8932 17.4023 46.7598 16.9043 46.7598C16.5267 46.7598 16.2402 46.8428 16.0449 47.0088C15.8496 47.1715 15.752 47.388 15.752 47.6582C15.752 47.8438 15.791 48.0033 15.8691 48.1367C15.9473 48.2669 16.0758 48.3906 16.2549 48.5078C16.4339 48.625 16.7562 48.7796 17.2217 48.9717C17.7458 49.1898 18.1299 49.3932 18.374 49.582C18.6182 49.7708 18.7972 49.984 18.9111 50.2217C19.0251 50.4593 19.082 50.7393 19.082 51.0615ZM22.7002 53.0977C21.8604 53.0977 21.2028 52.8535 20.7275 52.3652C20.2555 51.8737 20.0195 51.1982 20.0195 50.3389C20.0195 49.4567 20.2393 48.7633 20.6787 48.2588C21.1182 47.7542 21.722 47.502 22.4902 47.502C23.2031 47.502 23.7663 47.7184 24.1797 48.1514C24.5931 48.5843 24.7998 49.18 24.7998 49.9385V50.5586H21.2012C21.2174 51.0827 21.359 51.4863 21.626 51.7695C21.8929 52.0495 22.2689 52.1895 22.7539 52.1895C23.0729 52.1895 23.3691 52.1602 23.6426 52.1016C23.9193 52.0397 24.2155 51.9388 24.5312 51.7988V52.7314C24.2513 52.8649 23.9681 52.9593 23.6816 53.0146C23.3952 53.07 23.068 53.0977 22.7002 53.0977ZM22.4902 48.3711C22.1257 48.3711 21.8327 48.4867 21.6113 48.7178C21.3932 48.9489 21.263 49.2858 21.2207 49.7285H23.6719C23.6654 49.2826 23.5579 48.9456 23.3496 48.7178C23.1413 48.4867 22.8548 48.3711 22.4902 48.3711ZM28.2812 53.0977C27.4642 53.0977 26.8424 52.86 26.416 52.3848C25.9928 51.9062 25.7812 51.221 25.7812 50.3291C25.7812 49.4209 26.0026 48.7227 26.4453 48.2344C26.8913 47.7461 27.5342 47.502 28.374 47.502C28.9437 47.502 29.4564 47.6077 29.9121 47.8193L29.5654 48.7422C29.0804 48.5534 28.68 48.459 28.3643 48.459C27.43 48.459 26.9629 49.0791 26.9629 50.3193C26.9629 50.9248 27.0785 51.3805 27.3096 51.6865C27.5439 51.9893 27.8857 52.1406 28.335 52.1406C28.846 52.1406 29.3294 52.0137 29.7852 51.7598V52.7607C29.5801 52.8812 29.3604 52.9674 29.126 53.0195C28.8949 53.0716 28.6133 53.0977 28.2812 53.0977ZM35.8447 50.29C35.8447 51.1722 35.6185 51.8607 35.166 52.3555C34.7135 52.8503 34.0837 53.0977 33.2764 53.0977C32.7718 53.0977 32.3258 52.9837 31.9385 52.7559C31.5511 52.528 31.2533 52.2008 31.0449 51.7744C30.8366 51.348 30.7324 50.8532 30.7324 50.29C30.7324 49.4144 30.957 48.7308 31.4062 48.2393C31.8555 47.7477 32.4886 47.502 33.3057 47.502C34.0869 47.502 34.7054 47.7542 35.1611 48.2588C35.6169 48.7601 35.8447 49.4372 35.8447 50.29ZM31.9141 50.29C31.9141 51.5368 32.3747 52.1602 33.2959 52.1602C34.2074 52.1602 34.6631 51.5368 34.6631 50.29C34.6631 49.0563 34.2041 48.4395 33.2861 48.4395C32.8044 48.4395 32.4544 48.599 32.2363 48.918C32.0215 49.237 31.9141 49.6943 31.9141 50.29ZM41.9189 53H40.7666V49.6797C40.7666 49.263 40.682 48.9521 40.5127 48.7471C40.3467 48.542 40.0814 48.4395 39.7168 48.4395C39.2318 48.4395 38.877 48.5827 38.6523 48.8691C38.4277 49.1556 38.3154 49.6357 38.3154 50.3096V53H37.168V47.5996H38.0664L38.2275 48.3076H38.2861C38.4489 48.0505 38.68 47.8519 38.9795 47.7119C39.279 47.5719 39.611 47.502 39.9756 47.502C41.2712 47.502 41.9189 48.1611 41.9189 49.4795V53ZM45.3369 53.0977C44.6631 53.0977 44.1374 52.8535 43.7598 52.3652C43.3822 51.877 43.1934 51.1917 43.1934 50.3096C43.1934 49.4242 43.3838 48.7357 43.7646 48.2441C44.1488 47.7493 44.6794 47.502 45.3564 47.502C46.0661 47.502 46.6064 47.764 46.9775 48.2881H47.0361C46.9808 47.9007 46.9531 47.5947 46.9531 47.3701V45.4023H48.1055V53H47.207L47.0068 52.292H46.9531C46.5853 52.8291 46.0465 53.0977 45.3369 53.0977ZM45.6445 52.1699C46.1165 52.1699 46.46 52.0381 46.6748 51.7744C46.8896 51.5075 47.0003 51.0762 47.0068 50.4805V50.3193C47.0068 49.639 46.8962 49.1556 46.6748 48.8691C46.4535 48.5827 46.1068 48.4395 45.6348 48.4395C45.2311 48.4395 44.9202 48.6038 44.7021 48.9326C44.484 49.2581 44.375 49.7236 44.375 50.3291C44.375 50.9281 44.4808 51.3854 44.6924 51.7012C44.904 52.0137 45.2214 52.1699 45.6445 52.1699ZM53.374 51.4619C53.374 51.9893 53.182 52.3945 52.7979 52.6777C52.4137 52.9577 51.8636 53.0977 51.1475 53.0977C50.4281 53.0977 49.8503 52.9886 49.4141 52.7705V51.7793C50.0488 52.0723 50.6396 52.2188 51.1865 52.2188C51.8929 52.2188 52.2461 52.0055 52.2461 51.5791C52.2461 51.4424 52.207 51.3285 52.1289 51.2373C52.0508 51.1462 51.9222 51.0518 51.7432 50.9541C51.5641 50.8564 51.3151 50.7458 50.9961 50.6221C50.3743 50.3812 49.9528 50.1403 49.7314 49.8994C49.5133 49.6585 49.4043 49.346 49.4043 48.9619C49.4043 48.4997 49.5898 48.1416 49.9609 47.8877C50.3353 47.6305 50.8431 47.502 51.4844 47.502C52.1191 47.502 52.7197 47.6305 53.2861 47.8877L52.915 48.752C52.3324 48.5111 51.8424 48.3906 51.4453 48.3906C50.8398 48.3906 50.5371 48.5632 50.5371 48.9082C50.5371 49.0775 50.6152 49.2207 50.7715 49.3379C50.931 49.4551 51.276 49.6162 51.8066 49.8213C52.2526 49.9938 52.5765 50.1517 52.7783 50.2949C52.9801 50.4382 53.1299 50.6042 53.2275 50.793C53.3252 50.9785 53.374 51.2015 53.374 51.4619Z" fill="white"/>
</svg>
