<svg width="24" height="24" viewBox="0 0 24 24" fill="none" xmlns="http://www.w3.org/2000/svg">
  <mask id="mask0" mask-type="alpha" maskUnits="userSpaceOnUse" x="0" y="0" width="24" height="24">
    <rect width="24" height="24" fill="#C4C4C4"/>
  </mask>
  <g mask="url(#mask0)">
    <path fill-rule="evenodd" clip-rule="evenodd" d="M19.5367 21L18.8546 20.9987C18.0872 20.9987 17.4166 20.5571 17.4169 20.0142L17.4169 3.98928C17.4169 3.44642 18.099 3.00277 18.8672 3.00277L19.5356 3.00014H19.5592C20.3276 3.00014 21 3.4457 21 3.98855L21 20.0154C21 20.5582 20.3047 21 19.5367 21ZM5.29622 20.5664C4.91013 20.8497 4.53899 21 4.19431 21C3.43818 21 2.99986 20.3248 2.99999 19.2385L2.99999 4.75094C2.99999 4.22052 3.08294 3.78206 3.29778 3.47335C3.51578 3.1607 3.79534 3 4.16415 3H4.16456C4.50855 3 4.89533 3.14479 5.2821 3.42825L14.6851 10.3138C15.29 10.7572 15.6254 11.3543 15.6253 11.9951C15.6253 12.6357 15.2959 13.2324 14.6912 13.6758L5.29622 20.5664Z" fill="white"/>
  </g>
</svg>
