<svg width="30" height="20" viewBox="0 0 48 20" fill="none" xmlns="http://www.w3.org/2000/svg">
  <path d="M35.0733 9.40133L26.1848 0.915129C25.9288 0.672472 25.5501 0.599505 25.2159 0.731864C24.8835 0.862525 24.6666 1.17306 24.6666 1.51583V18.4848C24.6666 18.8276 24.8835 19.1382 25.2159 19.2688C25.3262 19.3112 25.4417 19.3333 25.5555 19.3333C25.7866 19.3333 26.0141 19.2468 26.1848 19.0855L35.0733 10.601C35.42 10.2701 35.42 9.73223 35.0733 9.40133Z" fill="white"/>
  <path d="M47.0733 9.39964L38.1848 0.915129C37.9306 0.672472 37.5502 0.599505 37.2159 0.731864C36.8835 0.862525 36.6666 1.17306 36.6666 1.51583V18.4848C36.6666 18.8276 36.8835 19.1382 37.2159 19.2688C37.3262 19.3112 37.4417 19.3333 37.5555 19.3333C37.7866 19.3333 38.0141 19.2468 38.1848 19.0855L47.0733 10.601C47.42 10.2684 47.42 9.73223 47.0733 9.39964Z" fill="white"/>
  <path d="M11.0733 9.40133L2.18479 0.915129C1.9288 0.672472 1.55014 0.599505 1.21594 0.731864C0.883506 0.862525 0.666626 1.17306 0.666626 1.51583V18.4848C0.666626 18.8276 0.883506 19.1382 1.21594 19.2688C1.32615 19.3112 1.4417 19.3333 1.55548 19.3333C1.78658 19.3333 2.01413 19.2468 2.18479 19.0855L11.0733 10.601C11.42 10.2701 11.42 9.73223 11.0733 9.40133Z" fill="white"/>
  <path d="M23.0733 9.39964L14.1848 0.915129C13.9306 0.672472 13.5501 0.599505 13.2159 0.731864C12.8835 0.862525 12.6666 1.17306 12.6666 1.51583V18.4848C12.6666 18.8276 12.8835 19.1382 13.2159 19.2688C13.3262 19.3112 13.4417 19.3333 13.5555 19.3333C13.7866 19.3333 14.0141 19.2468 14.1848 19.0855L23.0733 10.601C23.42 10.2684 23.42 9.73223 23.0733 9.39964Z" fill="white"/>
</svg>
