<svg width="24" height="24" viewBox="0 0 24 24" fill="none" xmlns="http://www.w3.org/2000/svg">
  <mask id="mask0" mask-type="alpha" maskUnits="userSpaceOnUse" x="0" y="0" width="24" height="24">
    <rect width="24" height="24" fill="#C4C4C4"/>
  </mask>
  <g mask="url(#mask0)">
    <path d="M4.46333 3L5.14543 3.00131C5.91282 3.00131 6.58336 3.44292 6.58315 3.98578V20.0107C6.58315 20.5536 5.90105 20.9972 5.13283 20.9972L4.46436 20.9999H4.44082C3.6724 20.9999 3 20.5543 3 20.0114V3.98462C3 3.44176 3.69532 3 4.46333 3Z" fill="white"/>
    <path d="M18.7038 3.43365C19.0899 3.15034 19.461 3 19.8057 3C20.5618 3 21.0001 3.67521 21 4.76145V19.2491C21 19.7795 20.9171 20.2179 20.7022 20.5266C20.4842 20.8393 20.2047 21 19.8359 21C19.4919 21 19.1047 20.8552 18.7179 20.5718L9.31486 13.6862C8.70995 13.2428 8.37459 12.6457 8.37473 12.0049C8.37473 11.3643 8.70406 10.7676 9.30883 10.3242L18.7038 3.43365Z" fill="white"/>
  </g>
</svg>
