<svg width="32" height="32" viewBox="0 0 32 32" fill="none" xmlns="http://www.w3.org/2000/svg">
<path fill-rule="evenodd" clip-rule="evenodd" d="M4 11.2C5.32548 11.2 6.4 10.1255 6.4 8.8C6.4 7.47452 5.32548 6.4 4 6.4C2.67452 6.4 1.6 7.47452 1.6 8.8C1.6 10.1255 2.67452 11.2 4 11.2ZM4 12.8C6.20914 12.8 8 11.0091 8 8.8C8 6.59086 6.20914 4.8 4 4.8C1.79086 4.8 0 6.59086 0 8.8C0 11.0091 1.79086 12.8 4 12.8Z" fill="url(#paint0_linear_1104_3475)"/>
<path fill-rule="evenodd" clip-rule="evenodd" d="M25.1446 28.3522C25.0526 28.1513 24.8153 28.0631 24.6144 28.1551L22.9636 28.911C22.7628 29.003 22.5254 28.9148 22.4334 28.7139L22.0105 27.7905C21.7346 27.1879 21.0224 26.9232 20.4199 27.1991L19.4964 27.622C19.2956 27.714 19.0582 27.6257 18.9662 27.4249L18.5433 26.5014C18.2674 25.8989 17.5552 25.6341 16.9527 25.91L15.3019 26.666C15.101 26.758 15.0128 26.9954 15.1048 27.1962C15.1967 27.3971 15.4341 27.4854 15.635 27.3934L17.2858 26.6374C17.4866 26.5454 17.724 26.6337 17.816 26.8345L18.2389 27.7579C18.5148 28.3605 19.227 28.6253 19.8295 28.3493L20.7529 27.9265C20.9538 27.8345 21.1912 27.9227 21.2832 28.1236L21.706 29.047C21.982 29.6496 22.6942 29.9143 23.2967 29.6384L24.9475 28.8824C25.1483 28.7904 25.2366 28.5531 25.1446 28.3522Z" fill="url(#paint1_linear_1104_3475)"/>
<path d="M18.6667 26.9333C23.6947 26.9333 26.2094 26.9333 27.7707 25.3707C29.3334 23.8093 29.3334 21.2947 29.3334 16.2667C29.3334 11.2387 29.3334 8.72401 27.7707 7.16267C26.2094 5.60001 23.6947 5.60001 18.6667 5.60001H13.3334C8.30535 5.60001 5.79069 5.60001 4.22935 7.16267C2.66669 8.72401 2.66669 11.2387 2.66669 16.2667C2.66669 21.2947 2.66669 23.8093 4.22935 25.3707C5.10002 26.2427 6.26669 26.628 8.00002 26.7973" fill="url(#paint2_linear_1104_3475)"/>
<path d="M18.6667 26.9333C17.0187 26.9333 15.2027 27.6 13.5454 28.46C10.8814 29.8427 9.54935 30.5347 8.89335 30.0933C8.23735 29.6533 8.1513 29.5293 8.40064 26.7973" fill="url(#paint3_linear_1104_3475)"/>
<path fill-rule="evenodd" clip-rule="evenodd" d="M10.4 11.7334H8.26669C7.82486 11.7334 7.46669 12.0916 7.46669 12.5334V14.6667C7.46669 15.1086 7.82486 15.4667 8.26669 15.4667H10.4C10.8418 15.4667 11.2 15.1086 11.2 14.6667V12.5334C11.2 12.0916 10.8418 11.7334 10.4 11.7334ZM8.26669 10.9334C7.38303 10.9334 6.66669 11.6497 6.66669 12.5334V14.6667C6.66669 15.5504 7.38303 16.2667 8.26669 16.2667H10.4C11.2837 16.2667 12 15.5504 12 14.6667V12.5334C12 11.6497 11.2837 10.9334 10.4 10.9334H8.26669Z" fill="url(#paint4_linear_1104_3475)"/>
<path fill-rule="evenodd" clip-rule="evenodd" d="M10.4 18.4H8.26669C7.82486 18.4 7.46669 18.7582 7.46669 19.2V21.3333C7.46669 21.7752 7.82486 22.1333 8.26669 22.1333H10.4C10.8418 22.1333 11.2 21.7752 11.2 21.3333V19.2C11.2 18.7582 10.8418 18.4 10.4 18.4ZM8.26669 17.6C7.38303 17.6 6.66669 18.3163 6.66669 19.2V21.3333C6.66669 22.217 7.38303 22.9333 8.26669 22.9333H10.4C11.2837 22.9333 12 22.217 12 21.3333V19.2C12 18.3163 11.2837 17.6 10.4 17.6H8.26669Z" fill="#FDCA15"/>
<path d="M13.3333 11.9334C13.3333 11.3811 13.781 10.9334 14.3333 10.9334H31C31.5522 10.9334 32 11.3811 32 11.9334V15.2667C32 15.819 31.5522 16.2667 31 16.2667H14.3333C13.781 16.2667 13.3333 15.819 13.3333 15.2667V11.9334Z" fill="url(#paint5_linear_1104_3475)"/>
<path d="M13.3333 18.6C13.3333 18.0477 13.781 17.6 14.3333 17.6H29.6666C30.2189 17.6 30.6666 18.0477 30.6666 18.6V21.9333C30.6666 22.4856 30.2189 22.9333 29.6666 22.9333H14.3333C13.781 22.9333 13.3333 22.4856 13.3333 21.9333V18.6Z" fill="url(#paint6_linear_1104_3475)"/>
<path d="M28.5146 4.6965C28.655 4.27756 28.4291 3.82416 28.0102 3.6838C27.5913 3.54343 27.1379 3.76927 26.9975 4.18821L26.6733 5.15594L25.8102 4.86676C25.3912 4.7264 24.9378 4.95223 24.7975 5.37117C24.6571 5.79011 24.8829 6.24352 25.3019 6.38388L26.165 6.67305L25.8758 7.53614C25.7354 7.95508 25.9613 8.40848 26.3802 8.54885C26.7991 8.68921 27.2526 8.46338 27.3929 8.04444L27.6821 7.18135L28.6498 7.50557C29.0687 7.64593 29.5221 7.4201 29.6625 7.00116C29.8029 6.58222 29.577 6.12882 29.1581 5.98846L28.1904 5.66423L28.5146 4.6965Z" fill="url(#paint7_linear_1104_3475)"/>
<path d="M8.56999 3.18103C8.40699 2.58716 8.948 2.03953 9.54382 2.1953L14.9772 3.61583C15.573 3.77161 15.7768 4.51395 15.3439 4.95206L11.397 8.94723C10.9642 9.38533 10.2195 9.19061 10.0565 8.59674L8.56999 3.18103Z" fill="url(#paint8_linear_1104_3475)"/>
<defs>
<linearGradient id="paint0_linear_1104_3475" x1="4" y1="4.8" x2="4" y2="12.8" gradientUnits="userSpaceOnUse">
<stop stop-color="#F63F54"/>
<stop offset="1" stop-color="#AB1D9D"/>
</linearGradient>
<linearGradient id="paint1_linear_1104_3475" x1="24.4587" y1="29.3855" x2="15.7907" y2="26.1629" gradientUnits="userSpaceOnUse">
<stop stop-color="#71C3FF"/>
<stop offset="1" stop-color="#8571FF"/>
</linearGradient>
<linearGradient id="paint2_linear_1104_3475" x1="2.39999" y1="4.80001" x2="28.8" y2="31.2" gradientUnits="userSpaceOnUse">
<stop stop-color="#3E74FF"/>
<stop offset="1" stop-color="#EB73FF"/>
</linearGradient>
<linearGradient id="paint3_linear_1104_3475" x1="2.39999" y1="4.80001" x2="28.8" y2="31.2" gradientUnits="userSpaceOnUse">
<stop stop-color="#3E74FF"/>
<stop offset="1" stop-color="#EB73FF"/>
</linearGradient>
<linearGradient id="paint4_linear_1104_3475" x1="9.33335" y1="10.9334" x2="9.33335" y2="16.2667" gradientUnits="userSpaceOnUse">
<stop stop-color="#FDCA15"/>
<stop offset="1" stop-color="#FDCA15"/>
</linearGradient>
<linearGradient id="paint5_linear_1104_3475" x1="13.6" y1="11.2" x2="31.2" y2="16" gradientUnits="userSpaceOnUse">
<stop stop-color="#D1D9FF"/>
<stop offset="1" stop-color="#D3FAFF"/>
</linearGradient>
<linearGradient id="paint6_linear_1104_3475" x1="13.6" y1="17.6" x2="30.4" y2="23.2" gradientUnits="userSpaceOnUse">
<stop stop-color="#D1D9FF"/>
<stop offset="1" stop-color="#D3FAFF"/>
</linearGradient>
<linearGradient id="paint7_linear_1104_3475" x1="27.23" y1="3.64214" x2="27.23" y2="8.59051" gradientUnits="userSpaceOnUse">
<stop stop-color="#FDCA15"/>
<stop offset="1" stop-color="#FD9215"/>
</linearGradient>
<linearGradient id="paint8_linear_1104_3475" x1="8.20328" y1="1.84491" x2="15.093" y2="8.65135" gradientUnits="userSpaceOnUse">
<stop stop-color="#FC71FF"/>
<stop offset="1" stop-color="#8571FF"/>
</linearGradient>
</defs>
</svg>
