<svg xmlns="http://www.w3.org/2000/svg" xmlns:xlink="http://www.w3.org/1999/xlink" width="12" height="14" viewBox="0 0 12 14">
    <defs>
        <path id="a" d="M0 .082h8.952V13.16H0z"/>
        <path id="c" d="M.053.068h7.833v9.328H.053z"/>
    </defs>
    <g fill="none" fill-rule="evenodd">
        <path d="M-2-1h16v16H-2z"/>
        <g transform="translate(.667 .604)">
            <mask id="b" fill="#fff">
                <use xlink:href="#a"/>
            </mask>
            <path fill="#8F8F8F" d="M2.109.082c.243.223.363.337.488.447 1.432 1.26 1.476 2.258.164 3.609-.52.536-1.062 1.06-1.548 1.616-2.728 3.122-.628 6.984 4.02 7.38 1.123.095 2.202-.063 3.079-.51-.797 0-1.643.05-2.476-.01-2.211-.159-3.705-1.4-3.652-3.079.07-2.217 1.632-3.82 3.573-5.328.9.766 1.603 1.52 1.722 2.54.123 1.059-.619 1.818-1.543 2.603 2.145-.289 3.311-1.622 2.952-3.31-.364-1.71-1.32-3.215-2.852-4.451C5.018.767 3.81.178 2.11.082" mask="url(#b)"/>
        </g>
        <g transform="translate(3.388 3.375)">
            <mask id="d" fill="#fff">
                <use xlink:href="#c"/>
            </mask>
            <path fill="#8F8F8F" d="M4.868.068c5.534 8.04-2.53 7.876-4.43 7.735-.242-.018-.385-.035-.385-.035v.273c.655.515 1.28.855 1.868 1.066.136.053.278.097.428.133.84.222 1.591.184 2.226.028 1.197-.257 2.266-1.026 2.72-1.956C9.49 3.582 4.868.068 4.868.068" mask="url(#d)"/>
        </g>
    </g>
</svg>
