<svg width="12" height="12" viewBox="0 0 12 12" fill="none" xmlns="http://www.w3.org/2000/svg">
<mask id="mask0" mask-type="alpha" maskUnits="userSpaceOnUse" x="0" y="0" width="12" height="12">
<rect width="12" height="12" fill="#C4C4C4"/>
</mask>
<g mask="url(#mask0)">
<path fill-rule="evenodd" clip-rule="evenodd" d="M6 3C8.71858 3 10.8472 5.70186 10.9365 5.8169C11.0212 5.92593 11.0212 6.07407 10.9365 6.18319C10.8472 6.29813 8.71858 9 6 9C3.28142 9 1.15274 6.29814 1.0635 6.1831C0.978893 6.07396 0.978893 5.92593 1.0635 5.81679C1.15274 5.70186 3.28142 3 6 3ZM6.00005 3.99998C4.89727 3.99998 4.00005 4.8972 4.00005 5.99998C4.00005 7.10276 4.89727 7.99998 6.00005 7.99998C7.10283 7.99998 8.00005 7.10276 8.00005 5.99998C8.00005 4.8972 7.10283 3.99998 6.00005 3.99998ZM6.00016 7.3333C5.26494 7.3333 4.66684 6.73519 4.66684 5.99998C4.66684 5.26477 5.26496 4.66666 6.00016 4.66666C6.73537 4.66666 7.33349 5.26477 7.33349 5.99998C7.33349 6.73519 6.73539 7.3333 6.00016 7.3333Z" fill="white"/>
</g>
</svg>
