<svg xmlns="http://www.w3.org/2000/svg" width="31" height="31" viewBox="0 0 31 31">
    <g fill="none" fill-rule="evenodd">
        <g fill="#8F8F8F" fill-rule="nonzero">
            <g>
                <path d="M30.945 26.452l-1.926-7.33c-.03-.114-.077-.22-.137-.319.11-.29.17-.604.17-.93V5.79c0-1.516-1.294-2.748-2.886-2.748H4.833c-1.592 0-2.887 1.232-2.887 2.748v12.083c0 .326.06.64.17.93-.06.098-.106.205-.136.32L.039 26.51c-.097.368-.01.758.235 1.057.245.299.622.474 1.02.474h28.412c.715 0 1.294-.552 1.294-1.232 0-.124-.02-.244-.055-.358zm-12.166-1.167H12.22c-.076 0-.147-.033-.196-.091-.048-.058-.069-.135-.055-.21l.51-2.835c.023-.122.128-.21.252-.21h5.535c.123 0 .23.088.251.21l.507 2.813c.006.022.009.044.009.068 0 .141-.114.255-.255.255zm7.752-6.66c0 .147-.088.274-.214.332H4.682c-.126-.058-.215-.185-.215-.333V5.93c0-.202.165-.366.366-.366h21.333c.201 0 .365.164.365.366v12.695z" transform="translate(-97 -613) translate(97 613)"/>
                <g>
                    <path d="M7.284 7.24c-.68 0-1.334.287-1.796.79-.228.248-.212.633.035.861.117.108.265.161.413.161.164 0 .328-.066.448-.197.236-.256.556-.397.9-.397.345 0 .665.141.9.397.228.248.614.264.861.036.248-.228.264-.613.036-.861-.462-.503-1.117-.79-1.797-.79z" transform="translate(-97 -613) translate(97 613) translate(8 8)"/>
                    <path d="M9.96 7.222c.12.13.284.197.449.197.147 0 .295-.053.412-.161.248-.228.264-.614.036-.861-.919-.998-2.22-1.57-3.573-1.57-1.351 0-2.654.572-3.572 1.57-.228.247-.212.633.035.86.248.229.634.213.862-.035.688-.748 1.663-1.177 2.675-1.177 1.012 0 1.988.429 2.676 1.177z" transform="translate(-97 -613) translate(97 613) translate(8 8)"/>
                    <path d="M7.268 2.373l.147.001-.171-.001c.099 0 .198.002.296.006.206.007.412.023.615.048.026.003.052.008.077.014 1.66.23 3.21 1.034 4.36 2.283.228.248.212.633-.036.861-.117.108-.265.161-.413.161-.164 0-.328-.066-.448-.197-1.143-1.24-2.76-1.954-4.44-1.957-1.678.003-3.295.716-4.438 1.957-.12.13-.284.197-.448.197-.148 0-.296-.053-.413-.161-.248-.228-.263-.613-.036-.861 1.15-1.249 2.7-2.052 4.359-2.283.025-.006.052-.01.078-.014.203-.025.41-.041.615-.049.098-.003.197-.005.296-.005l-.17.001.146-.001z" transform="translate(-97 -613) translate(97 613) translate(8 8)"/>
                    <path d="M.61 4.153c.164 0 .328-.066.448-.196 1.601-1.74 3.87-2.738 6.226-2.738s4.626.998 6.227 2.738c.228.247.614.263.861.035.248-.228.264-.613.036-.86C12.576 1.141 9.98 0 7.284 0 4.59 0 1.993 1.141.161 3.131c-.228.248-.212.633.036.861.117.108.265.161.412.161z" transform="translate(-97 -613) translate(97 613) translate(8 8)"/>
                </g>
            </g>
        </g>
    </g>
</svg>
