<svg xmlns="http://www.w3.org/2000/svg" width="31" height="31" viewBox="0 0 31 31">
    <g fill="none" fill-rule="evenodd">
        <g fill="#FFF" fill-rule="nonzero">
            <g>
                <path d="M27.328 13.874l-.001-.002-10.2-10.198C16.694 3.24 16.116 3 15.5 3s-1.193.24-1.628.674L3.68 13.867l-.01.01c-.893.898-.892 2.355.004 3.25.409.41.95.647 1.527.671.024.003.047.004.071.004h.407v7.505C5.678 26.792 6.886 28 8.372 28h3.99c.404 0 .732-.328.732-.732v-5.884c0-.678.552-1.23 1.23-1.23h2.353c.678 0 1.229.552 1.229 1.23v5.884c0 .404.328.732.732.732h3.99c1.486 0 2.695-1.208 2.695-2.693v-7.505h.377c.614 0 1.192-.24 1.627-.674.897-.897.897-2.357.001-3.254z" transform="translate(-22 -613) translate(22 613)"/>
            </g>
        </g>
    </g>
</svg>
