<svg xmlns="http://www.w3.org/2000/svg" width="31" height="31" viewBox="0 0 31 31">
    <g fill="none" fill-rule="evenodd">
        <g fill="#8F8F8F" fill-rule="nonzero">
            <g>
                <g>
                    <path d="M23.09 0H15.68c-1.1 0-1.996.895-1.996 1.995v8.553c0 1.1.895 1.995 1.996 1.995h7.412c1.1 0 1.995-.895 1.995-1.995V1.995c0-1.1-.895-1.995-1.995-1.995zm-1.708 6.908l-2.85 2.565c-.548.492-1.428.106-1.428-.636V3.706c0-.739.88-1.128 1.428-.636l2.85 2.565c.378.341.378.932 0 1.273z" transform="translate(-247 -613) translate(247 613) translate(4 3)"/>
                    <path d="M20.525 14.824h-4.846c-2.36 0-4.276-1.916-4.276-4.276V1.995c0-.718.182-1.402.502-1.995H3.42C1.539 0 0 1.54 0 3.42v16.535c0 1.117 1.527 2.85 3.42 2.85h3.422v1.574c0 .744.887 1.128 1.425.639l1.996-1.779 1.995 1.779c.518.48 1.425.124 1.425-.639v-1.573h5.702c.627 0 1.14-.514 1.14-1.14v-6.842zM6.842 20.525H3.42c-.627 0-1.14-.513-1.14-1.14 0-.627.513-1.14 1.14-1.14h3.42v2.28zm11.402 0h-4.56v-2.28h4.56v2.28z" transform="translate(-247 -613) translate(247 613) translate(4 3)"/>
                </g>
            </g>
        </g>
    </g>
</svg>
