<svg xmlns="http://www.w3.org/2000/svg" width="31" height="31" viewBox="0 0 31 31">
    <g fill="none" fill-rule="evenodd">
        <g fill="#8F8F8F">
            <g>
                <path d="M25.966 26c.571 0 1.034.448 1.034 1 0 .515-.403.94-.921.994l-.113.006H6.034C5.463 28 5 27.552 5 27c0-.515.403-.94.921-.994L6.034 26h19.932zM28 3c1.657 0 3 1.343 3 3v15c0 1.657-1.343 3-3 3H3c-1.657 0-3-1.343-3-3V6c0-1.657 1.343-3 3-3h25zm-14.5 7.253h-5c-.552 0-1 .447-1 1 0 .552.448 1 1 1l1.5-.001v4.5c0 .553.448 1 1 1s1-.447 1-1v-4.5h1.5c.552 0 1-.447 1-1 0-.552-.448-1-1-1zm8.69.122c-.5-.234-1.095-.017-1.328.483L19 14.85l-1.862-3.992c-.233-.5-.828-.717-1.328-.483-.501.233-.718.828-.484 1.329l2.536 5.438c.204.438.686.659 1.138.55.453.108.934-.112 1.138-.55l2.536-5.438.043-.109c.158-.475-.062-1.003-.527-1.22z" transform="translate(-172 -613) translate(172 613)"/>
            </g>
        </g>
    </g>
</svg>
