<svg xmlns="http://www.w3.org/2000/svg" xmlns:xlink="http://www.w3.org/1999/xlink" width="50" height="50" viewBox="0 0 50 50">
    <defs>
        <path id="hhifxsi2ua" d="M19.419 19.431c-1.68-.36-3.213-1.196-4.434-2.417-1.688-1.688-2.617-3.932-2.617-6.319 0-2.386.93-4.63 2.617-6.318 3.485-3.484 9.154-3.484 12.638 0 2.493 2.493 3.288 6.232 2.025 9.525-.174.454.052.963.506 1.137.454.174.963-.053 1.137-.506 1.512-3.942.56-8.416-2.424-11.4C26.847 1.113 24.161 0 21.304 0c-2.857 0-5.543 1.112-7.563 3.133-2.02 2.02-3.133 4.706-3.133 7.562 0 2.562.897 4.984 2.538 6.914l-2.327 2.327-1.398-1.398c-.344-.344-.901-.344-1.245 0l-7.091 7.09c-1.447 1.447-1.447 3.8 0 5.245l.04.04c.7.701 1.632 1.087 2.622 1.087.991 0 1.922-.386 2.623-1.086l7.091-7.091c.166-.165.258-.39.258-.623 0-.233-.092-.457-.258-.622l-1.398-1.398 2.326-2.326c1.341 1.138 2.935 1.928 4.66 2.298.062.013.125.02.186.02.406 0 .77-.283.86-.696.101-.475-.201-.943-.676-1.045z"/>
        <path id="wtjmz58bnc" d="M7.027 0C3.183 0 0 3.128 0 6.973 0 10.817 3.183 14 7.027 14 10.872 14 14 10.817 14 6.973 14 3.128 10.872 0 7.027 0zm3.452 9.264c.32.32.32.84 0 1.16-.318.317-.838.323-1.16 0L7.026 8.133l-2.345 2.292c-.32.32-.84.32-1.16 0-.32-.32-.32-.84 0-1.16l2.29-2.292-2.29-2.292c-.32-.32-.32-.84 0-1.16.32-.32.84-.32 1.16 0l2.345 2.292L9.318 3.52c.32-.32.84-.32 1.16 0 .32.32.32.84 0 1.16l-2.29 2.292 2.29 2.29z"/>
    </defs>
    <g fill="none" fill-rule="evenodd">
        <g>
            <g transform="translate(-163 -178) translate(163 178)">
                <circle cx="25" cy="25" r="25" fill="#2E2E2E"/>
                <g>
                    <g transform="translate(8 9)">
                        <mask id="yn7gy3nh1b" fill="#fff">
                            <use xlink:href="#hhifxsi2ua"/>
                        </mask>
                        <use fill="#8F8F8F" fill-rule="nonzero" xlink:href="#hhifxsi2ua"/>
                        <circle cx="18.808" cy="19.808" r="4.808" fill="#D71C54" mask="url(#yn7gy3nh1b)"/>
                        <circle cx="2.769" cy="20.769" r="5.769" fill="#05B9FC" mask="url(#yn7gy3nh1b)"/>
                    </g>
                    <g transform="translate(8 9) translate(21 17)">
                        <mask id="3eg9ea0gvd" fill="#fff">
                            <use xlink:href="#wtjmz58bnc"/>
                        </mask>
                        <use fill="#DEDBDB" fill-rule="nonzero" xlink:href="#wtjmz58bnc"/>
                        <circle cx="14.327" cy="7.327" r="4.327" fill="#FEB715" mask="url(#3eg9ea0gvd)"/>
                    </g>
                </g>
            </g>
        </g>
    </g>
</svg>
