<svg xmlns="http://www.w3.org/2000/svg" width="26" height="26" viewBox="0 0 26 26">
    <g fill="none" fill-rule="evenodd">
        <g>
            <g transform="translate(-20 -634) translate(20 634)">
                <circle cx="13" cy="13" r="13" fill="#FFF"/>
                <g fill="#425EAC">
                    <path d="M16.376 8.658h-1.224c-.96 0-1.145.457-1.145 1.125v1.476h2.289l-.299 2.311h-1.99v5.93H11.62v-5.93H9.625V11.26h1.995V9.555c0-1.978 1.209-3.055 2.973-3.055.845 0 1.57.063 1.783.091v2.067zM0 13c0 7.18 5.819 13 13 13 7.18 0 13-5.819 13-13 0-7.18-5.819-13-13-13C5.82 0 0 5.819 0 13z"/>
                </g>
            </g>
        </g>
    </g>
</svg>
