<svg xmlns="http://www.w3.org/2000/svg" width="42" height="44" viewBox="0 0 42 44">
    <g fill="none" fill-rule="evenodd">
        <g fill="#FFF" fill-rule="nonzero">
            <g>
                <g>
                    <path d="M38.499 26.922c.837-1.035 1.238-2.145 1.187-3.288-.052-1.259-.632-2.244-1.11-2.849.555-1.341.768-3.453-1.085-5.092-1.357-1.201-3.663-1.74-6.856-1.59-2.245.099-4.124.505-4.2.521h-.01c-.426.075-.879.166-1.34.265-.034-.53.06-1.846 1.068-4.811 1.195-3.528 1.127-6.227-.222-8.033C24.513.15 22.25 0 21.585 0c-.64 0-1.23.257-1.648.729-.948 1.068-.837 3.039-.717 3.95-1.128 2.931-4.287 10.12-6.96 12.115-.05.033-.093.075-.136.116-.785.803-1.315 1.673-1.673 2.435-.504-.265-1.076-.415-1.69-.415H3.55C1.589 18.93 0 20.48 0 22.375v13.457c0 1.905 1.597 3.445 3.552 3.445H8.76c.76 0 1.469-.232 2.05-.63l2.006.233c.307.041 5.772.712 11.381.604 1.016.075 1.973.116 2.86.116 1.529 0 2.86-.116 3.97-.348 2.614-.538 4.398-1.615 5.303-3.196.692-1.21.692-2.41.58-3.172 1.7-1.49 1.999-3.138 1.939-4.298-.034-.67-.188-1.242-.35-1.664z" transform="translate(-109 -214) translate(109 214) translate(.63 2.514)"/>
                </g>
            </g>
        </g>
    </g>
</svg>
