<svg width="24" height="24" viewBox="0 0 24 24" fill="none" xmlns="http://www.w3.org/2000/svg">
  <mask id="mask0" mask-type="alpha" maskUnits="userSpaceOnUse" x="0" y="0" width="24" height="24">
    <rect width="24" height="24" fill="#C4C4C4"/>
  </mask>
  <g mask="url(#mask0)">
    <path d="M21.8162 10.5286L14.4477 4.12818C14.2925 3.99277 14.0736 3.96202 13.8854 4.04848C13.6988 4.13548 13.5791 4.32455 13.5791 4.53291V8.2738C7.69804 8.43946 4.86084 11.3896 3.51215 13.8757C2.33923 16.0368 2.07609 18.1765 2.01697 19.0547C2.00567 19.1891 2 19.3261 2 19.4657V19.4827L2.00049 19.4842V19.4945L2.00099 19.4961V19.5028L2.00148 19.5049V19.5095L2.00197 19.5116V19.5163L2.00247 19.5178V19.5214L2.00296 19.523V19.5261L2.00345 19.5276V19.5307L2.00395 19.5323V19.5338C2.03686 19.7968 2.25836 20 2.52614 20C2.81652 20 3.05194 19.762 3.05248 19.4677C3.05248 19.4406 3.05297 19.3739 3.05761 19.2729C3.28735 14.8377 11.3729 13.8314 13.5789 13.6392V17.3332C13.5789 17.5415 13.6986 17.7306 13.8852 17.8176C14.0728 17.9041 14.2913 17.8739 14.4475 17.7379L21.816 11.3375C21.9327 11.2364 22 11.0885 22 10.9328C22.0002 10.7776 21.9328 10.6297 21.8162 10.5286Z" fill="white"/>
  </g>
</svg>
