<svg xmlns="http://www.w3.org/2000/svg" width="26" height="26" viewBox="0 0 26 26">
    <g fill="none" fill-rule="evenodd">
        <g>
            <g transform="translate(-58 -634) translate(58 634)">
                <circle cx="13" cy="13" r="13" fill="#FFF"/>
                <g fill="#1DADEB">
                    <path d="M18.17 10.349c.004.114.007.229.007.345 0 3.524-2.683 7.588-7.588 7.588-1.507 0-2.908-.441-4.089-1.198.209.025.42.037.636.037 1.25 0 2.4-.426 3.313-1.142-1.168-.02-2.153-.792-2.492-1.851.163.03.33.047.502.047.243 0 .479-.033.703-.094-1.22-.244-2.14-1.322-2.14-2.614v-.034c.36.2.771.32 1.209.334-.716-.479-1.187-1.295-1.187-2.22 0-.49.131-.947.361-1.342 1.316 1.614 3.281 2.676 5.497 2.787-.045-.195-.069-.399-.069-.607 0-1.473 1.195-2.668 2.667-2.668.768 0 1.46.324 1.947.843.608-.12 1.179-.342 1.694-.647-.2.622-.622 1.145-1.173 1.475.54-.065 1.053-.208 1.532-.42-.358.535-.81 1.005-1.33 1.38zM0 13c0 7.18 5.819 13 13 13 7.18 0 13-5.819 13-13 0-7.18-5.819-13-13-13C5.82 0 0 5.819 0 13z"/>
                </g>
            </g>
        </g>
    </g>
</svg>
