<svg width="20" height="20" xmlns="http://www.w3.org/2000/svg">

 <g>
  <title>background</title>
  <rect fill="none" id="canvas_background" height="602" width="802" y="-1" x="-1"/>
 </g>
 <g>
  <title>Layer 1</title>
  <g id="svg_1" fill-rule="evenodd" fill="none">
   <g id="svg_2" fill-rule="nonzero" fill="#FFF">
    <g id="svg_3">
     <g id="svg_4">
      <path id="svg_5" transform="translate(304,637) translate(0.28700000047683716,1.1430000066757202) " d="m-285.72393,-624.86401c0.382,-0.47 0.565,-0.975 0.542,-1.494c-0.024,-0.572 -0.289,-1.02 -0.507,-1.295c0.253,-0.61 0.35,-1.57 -0.495,-2.315c-0.62,-0.546 -1.671,-0.79 -3.129,-0.723c-1.024,0.045 -1.882,0.23 -1.917,0.237l-0.004,0c-0.194,0.034 -0.4,0.076 -0.611,0.12c-0.016,-0.24 0.027,-0.839 0.487,-2.186c0.545,-1.604 0.514,-2.83 -0.102,-3.651c-0.646,-0.862 -1.679,-0.93 -1.983,-0.93c-0.292,0 -0.561,0.117 -0.752,0.331c-0.432,0.486 -0.382,1.382 -0.327,1.796c-0.515,1.332 -1.956,4.6 -3.176,5.507c-0.023,0.015 -0.043,0.034 -0.062,0.052c-0.359,0.365 -0.6,0.76 -0.764,1.107c-0.23,-0.12 -0.49,-0.188 -0.771,-0.188l-2.378,0c-0.895,0 -1.62,0.704 -1.62,1.565l0,6.116c0,0.866 0.729,1.566 1.62,1.566l2.378,0c0.346,0 0.67,-0.105 0.935,-0.286l0.916,0.106c0.14,0.018 2.633,0.323 5.193,0.274c0.464,0.034 0.9,0.053 1.306,0.053c0.697,0 1.305,-0.053 1.812,-0.158c1.192,-0.245 2.006,-0.734 2.42,-1.453c0.315,-0.55 0.315,-1.095 0.264,-1.442c0.776,-0.677 0.912,-1.426 0.885,-1.953c-0.016,-0.305 -0.086,-0.565 -0.16,-0.757l0,0.001zm-15.948,4.6c-0.316,0 -0.569,-0.249 -0.569,-0.55l0,-6.12c0,-0.305 0.257,-0.55 0.569,-0.55l2.377,0c0.315,0 0.569,0.249 0.569,0.55l0,6.117c0,0.304 -0.258,0.55 -0.57,0.55l-2.375,0l0,0.003l-0.001,0zm14.95,-5.04c-0.163,0.165 -0.194,0.418 -0.07,0.613c0,0.004 0.16,0.268 0.18,0.629c0.027,0.493 -0.219,0.93 -0.733,1.302c-0.183,0.136 -0.257,0.37 -0.18,0.58c0,0.004 0.168,0.5 -0.104,0.971c-0.261,0.452 -0.842,0.776 -1.723,0.956c-0.705,0.147 -1.663,0.173 -2.84,0.083l-0.055,0c-2.505,0.053 -5.038,-0.263 -5.065,-0.267l-0.004,0l-0.393,-0.045c0.023,-0.106 0.035,-0.219 0.035,-0.332l0,-6.12c0,-0.162 -0.028,-0.32 -0.074,-0.467c0.07,-0.252 0.265,-0.813 0.724,-1.291c1.75,-1.34 3.46,-5.86 3.534,-6.056c0.032,-0.08 0.04,-0.166 0.024,-0.253c-0.066,-0.421 -0.043,-0.937 0.05,-1.091c0.207,0.004 0.764,0.06 1.1,0.508c0.397,0.53 0.381,1.48 -0.048,2.736c-0.654,1.916 -0.709,2.925 -0.19,3.37c0.257,0.221 0.6,0.233 0.849,0.146c0.238,-0.053 0.464,-0.098 0.678,-0.132l0.05,-0.01c1.197,-0.253 3.34,-0.407 4.084,0.248c0.631,0.557 0.183,1.294 0.132,1.373c-0.144,0.211 -0.1,0.486 0.094,0.655c0.004,0.004 0.413,0.377 0.432,0.877c0.016,0.335 -0.148,0.678 -0.487,1.017z"/>
     </g>
    </g>
   </g>
  </g>
 </g>
</svg>