<svg xmlns="http://www.w3.org/2000/svg" width="37" height="37" viewBox="0 0 37 37">
    <defs>
        <linearGradient id="5pyu82yvra" x1="50%" x2="50%" y1="0%" y2="100%">
            <stop offset="0%" stop-color="#93FF75"/>
            <stop offset="99.322%" stop-color="#00EAFF"/>
        </linearGradient>
        <linearGradient id="n7sif0nu7b" x1="50%" x2="50%" y1="0%" y2="100%">
            <stop offset="0%" stop-color="#93FF75"/>
            <stop offset="99.322%" stop-color="#00EAFF"/>
        </linearGradient>
        <linearGradient id="5tqopot6tc" x1="50%" x2="50%" y1="0%" y2="100%">
            <stop offset="0%" stop-color="#93FF75"/>
            <stop offset="99.322%" stop-color="#00EAFF"/>
        </linearGradient>
        <linearGradient id="u9calc91rd" x1="50%" x2="50%" y1="0%" y2="100%">
            <stop offset="0%" stop-color="#93FF75"/>
            <stop offset="99.322%" stop-color="#00EAFF"/>
        </linearGradient>
        <linearGradient id="h87lhez0te" x1="50%" x2="50%" y1="0%" y2="100%">
            <stop offset="0%" stop-color="#93FF75"/>
            <stop offset="99.322%" stop-color="#00EAFF"/>
        </linearGradient>
        <linearGradient id="0mp0pfqowf" x1="50%" x2="50%" y1="0%" y2="100%">
            <stop offset="0%" stop-color="#93FF75"/>
            <stop offset="99.322%" stop-color="#00EAFF"/>
        </linearGradient>
        <linearGradient id="s7p5tgoozg" x1="50%" x2="50%" y1="0%" y2="100%">
            <stop offset="0%" stop-color="#93FF75"/>
            <stop offset="99.322%" stop-color="#00EAFF"/>
        </linearGradient>
        <linearGradient id="zbf2pnlefh" x1="50%" x2="50%" y1="0%" y2="100%">
            <stop offset="0%" stop-color="#93FF75"/>
            <stop offset="99.322%" stop-color="#00EAFF"/>
        </linearGradient>
        <linearGradient id="5xmqhounii" x1="50%" x2="50%" y1="0%" y2="100%">
            <stop offset="0%" stop-color="#93FF75"/>
            <stop offset="99.322%" stop-color="#00EAFF"/>
        </linearGradient>
    </defs>
    <g fill="none" fill-rule="evenodd">
        <g fill-rule="nonzero" transform="translate(-4 -4) translate(4 4)">
            <path fill="url(#5pyu82yvra)" d="M8.179 17.345c-.735.044-3.198.25-4.057 1.03-1.032.936-1.11 2.539-.176 3.572.497.55 1.183.83 1.872.83.604 0 1.21-.215 1.693-.653.86-.78 1.307-3.215 1.423-3.943.035-.217-.03-.437-.177-.6-.147-.162-.36-.25-.578-.236zm-1.636 3.708c-.442.401-1.128.367-1.528-.076-.4-.443-.367-1.13.075-1.531.25-.227 1.228-.446 2.241-.571-.224.997-.538 1.95-.788 2.178z"/>
            <path fill="url(#n7sif0nu7b)" d="M22.741 10.76c.958-.631 2.1-.848 3.217-.61 1.125.239 2.09.91 2.718 1.887.138.215.37.332.607.332.134 0 .27-.037.39-.115.335-.215.432-.663.216-.998-.837-1.305-2.127-2.2-3.632-2.52-1.496-.318-3.026-.029-4.308.815-.333.22-.425.668-.206 1.001.218.334.665.426.998.207z"/>
            <path fill="url(#5tqopot6tc)" d="M14.187 10.76c.332.218.78.126.998-.208.22-.333.127-.781-.206-1-1.282-.845-2.812-1.134-4.308-.816-1.505.32-2.795 1.215-3.632 2.52-.216.335-.119.783.216.998.12.078.256.115.39.115.237 0 .47-.117.607-.332.627-.978 1.593-1.648 2.718-1.887 1.117-.238 2.26-.021 3.217.61z"/>
            <path fill="url(#u9calc91rd)" d="M33.029 21.947c.452-.5.683-1.148.65-1.823-.033-.674-.327-1.296-.827-1.75-.859-.779-3.322-.985-4.056-1.03-.219-.013-.431.075-.578.237-.147.163-.213.383-.178.6.117.728.564 3.163 1.423 3.943.482.438 1.089.653 1.694.653.688 0 1.374-.28 1.872-.83zm-1.07-.97c-.4.443-1.085.477-1.528.076-.25-.227-.563-1.18-.788-2.178 1.013.125 1.99.344 2.241.57.214.195.34.462.354.75.015.29-.084.568-.278.782z"/>
            <circle cx="29.897" cy="32.093" r="1" fill="url(#h87lhez0te)"/>
            <path fill="url(#0mp0pfqowf)" d="M36.897 17.461c-.2-3.432-1.347-6.796-3.335-9.622C30.672 3.728 26.13.931 21.167.196c-5.028-.746-10.25.66-14.225 3.839C3.318 6.933.874 11.194.195 15.788-.49 20.433.65 25.275 3.343 29.12c2.889 4.126 7.446 6.94 12.419 7.677 2.077.308 4.167.263 6.211-.133 1.977-.383 3.868-1.086 5.622-2.087.168-.096.288-.251.34-.437.05-.186.025-.381-.07-.549-.11-.194-.3-.324-.521-.357-.162-.024-.321.006-.462.087-3.335 1.902-7.107 2.61-10.91 2.046-4.497-.667-8.468-3.049-11.18-6.707C2.084 25.002.958 20.505 1.623 16 2.288 11.494 4.666 7.516 8.317 4.8 11.97 2.085 16.46.957 20.956 1.624c4.497.666 8.468 3.048 11.179 6.706 2.71 3.66 3.835 8.156 3.17 12.662-.453 3.07-1.727 5.951-3.685 8.333-.253.308-.21.764.098 1.018.102.083.224.138.353.157.252.037.5-.058.662-.255 1.044-1.27 1.913-2.672 2.582-4.17.691-1.543 1.168-3.182 1.418-4.871.183-1.242.236-2.497.164-3.743z"/>
            <path fill="url(#s7p5tgoozg)" d="M25.237 14.197c1.125.239 2.09.909 2.718 1.887.138.215.37.332.607.332.134 0 .269-.037.39-.115.334-.216.431-.663.216-.998-.837-1.306-2.127-2.2-3.632-2.52-1.497-.318-3.027-.029-4.308.815-.333.22-.426.668-.207 1.001.219.334.666.426.999.207.957-.63 2.1-.847 3.217-.61z"/>
            <path fill="url(#zbf2pnlefh)" d="M14.908 14.806c.333.22.78.127.999-.207.218-.333.126-.782-.207-1-1.282-.845-2.812-1.134-4.308-.816-1.505.32-2.795 1.214-3.632 2.52-.216.335-.119.782.216.998.121.078.256.115.39.115.237 0 .47-.117.607-.332.628-.978 1.593-1.648 2.718-1.888 1.117-.237 2.26-.02 3.217.61z"/>
            <path fill="url(#5xmqhounii)" d="M7.781 22.413c-.135.188-.172.43-.1.65.81 2.445 2.238 4.538 4.129 6.054 1.951 1.564 4.252 2.39 6.654 2.39s4.702-.826 6.654-2.39c1.89-1.516 3.318-3.609 4.128-6.053.073-.22.036-.463-.1-.651-.135-.188-.353-.3-.585-.3H8.366c-.231 0-.449.112-.585.3zm19.737 1.146c-1.672 3.928-5.204 6.503-9.054 6.503-3.85 0-7.383-2.575-9.054-6.503h18.108z"/>
        </g>
        <path d="M0 0H45V45H0z" transform="translate(-4 -4)"/>
    </g>
</svg>
