<svg xmlns="http://www.w3.org/2000/svg" width="41" height="32" viewBox="0 0 41 32">
    <defs>
        <linearGradient id="8hokobomaa" x1="50%" x2="50%" y1="17.153%" y2="97.902%">
            <stop offset="0%" stop-color="#EB9F9F"/>
            <stop offset="100%" stop-color="red"/>
        </linearGradient>
        <linearGradient id="6mx6xmr7cb" x1="50%" x2="50%" y1="17.153%" y2="97.902%">
            <stop offset="0%" stop-color="#EB9F9F"/>
            <stop offset="100%" stop-color="red"/>
        </linearGradient>
    </defs>
    <g fill="none" fill-rule="evenodd">
        <g fill-rule="nonzero" transform="translate(-2 -7) translate(2 7)">
            <path fill="url(#8hokobomaa)" d="M36.726 2.768c-4.801-4.01-11.908-3.533-16.13 1.083l-.096.105-.096-.105C16.98.116 11.542-.994 6.929 1.101 2.315 3.198-.427 8.022.132 13.058c.506 4.454 3.064 8.416 6.914 10.71l13.097 7.761c.22.131.494.131.714 0l13.097-7.76c3.85-2.295 6.408-6.257 6.914-10.71.44-3.909-1.118-7.776-4.142-10.29zM18.433 17.831l.509 1.525-.858.43c-.183.091-.317.258-.366.457l-.569 2.272h-1.321l-2.337-1.752v-.84l1.284-1.925c.077-.115.118-.25.118-.389v-.7h3.504v.7c0 .075.013.15.036.222zm.212-2.325h-4.453c-.387 0-.7.314-.7.701v1.19l-1.285 1.926c-.076.115-.117.25-.117.389v.104l-.373-.465c-.665-.834-1.028-1.868-1.029-2.935v-.418c0-2.594 2.103-4.697 4.697-4.697 1.064 0 2.122-.16 3.138-.473l.366 2.56c.103.715.019 1.445-.244 2.118zm-5.348 6.863l1.877 1.407c.12.091.268.14.42.14h.728c.092 1.252.428 2.473.987 3.596.14.283.244.581.308.89l-6.242-3.699c.916-.503 1.604-1.338 1.922-2.334zM20.5 30.11l-1.402-.83v-.127c0-.787-.184-1.563-.535-2.268-.463-.928-.747-1.936-.836-2.97.31-.013.574-.228.65-.53l.622-2.49 1.114-.556c.211-.106.355-.312.382-.547l.787.393.633 3.168c.066.328.354.564.688.564h.868c.23 1.037.094 2.121-.384 3.07l-1.111 2.223-.016.035-1.46.865zm9.402-5.571l-.482-.644c.495.11 1.006.122 1.506.037l-1.024.607zm-8.039-7.402c.549.251 1.114.463 1.692.635-.276.23-.333.631-.132.93.2.297.593.396.91.227.317-.168.456-.55.32-.882.71.145 1.43.23 2.155.255v3.079l-2.268 1.134h-1.363l-.588-2.94c-.042-.213-.18-.394-.374-.49l-.858-.43.506-1.518zm6.379 1.173c.294 0 .554.193.64.475.085.282-.024.586-.27.75l-.403.269V18.31h.033zm-3.348 5.58c.043-.012.085-.028.125-.047l1.9-.95c.01.014.018.028.029.042l1.741 2.322-4.505 2.67.157-.313c.579-1.15.773-2.456.553-3.724zm6.192-1.437c-1.046.346-2.196 0-2.877-.866v-.099l1.181-.787c.76-.506 1.098-1.45.833-2.322-.264-.874-1.07-1.47-1.981-1.47h-1.01c-1.85-.002-3.67-.449-5.31-1.304.05-.544.201-1.074.444-1.564l.154-.306c.671-1.343 1.98-2.251 3.474-2.41 1.493-.157 2.963.456 3.901 1.628l.089.11c.665.834 1.027 1.869 1.029 2.935 0 .662.081 1.321.241 1.963l1.024 4.094-1.192.398zm8.388-9.55c-.432 3.799-2.521 7.213-5.708 9.327l-1.152-4.609c-.132-.53-.2-1.076-.2-1.623-.001-1.384-.472-2.727-1.336-3.81l-.088-.11c-1.237-1.546-3.176-2.355-5.144-2.146-1.968.208-3.695 1.406-4.58 3.176l-.153.307c-.402.806-.612 1.694-.613 2.595v.784l-.468 1.402-.233-.7v-1.129c.467-.99.633-2.095.477-3.178L19.792 9.8c-.03-.205-.149-.387-.326-.497-.176-.109-.393-.134-.59-.068l-.574.191c-.94.314-1.926.474-2.917.473-1.618 0-3.169.643-4.313 1.787-1.143 1.143-1.786 2.695-1.786 4.312v.418c.002 1.385.473 2.728 1.337 3.81l1.347 1.684c-.216.706-.713 1.291-1.373 1.62l-.653.326-2.183-1.295c-3.473-2.069-5.78-5.642-6.235-9.659-.496-4.434 1.917-8.684 5.98-10.529C11.57.528 16.357 1.507 19.37 4.798l.613.67c.133.144.32.226.517.226.196 0 .384-.082.516-.227l.614-.669c3.014-3.288 7.8-4.264 11.861-2.42 4.061 1.844 6.476 6.091 5.983 10.524z"/>
            <circle cx="16.996" cy="17.609" r="1" fill="url(#6mx6xmr7cb)"/>
        </g>
        <path d="M0 0H45V45H0z" transform="translate(-2 -7)"/>
    </g>
</svg>
