<svg xmlns="http://www.w3.org/2000/svg" width="30" height="36" viewBox="0 0 30 36">
    <defs>
        <linearGradient id="j9me2zq6ma" x1="50%" x2="50%" y1="0%" y2="100%">
            <stop offset="0%" stop-color="#C668E0"/>
            <stop offset="100%" stop-color="#8F2C9F"/>
        </linearGradient>
        <linearGradient id="3qrotxbkjb" x1="50%" x2="50%" y1="0%" y2="100%">
            <stop offset="0%" stop-color="#C465DD"/>
            <stop offset="100%" stop-color="#9836AA"/>
        </linearGradient>
    </defs>
    <g fill="none">
        <path fill="#902DA0" d="M18 31.2L16.8 31.2 16.8 32.4 4.8 32.4 4.8 31.2 3.6 31.2 3.6 33.6 18 33.6zM24.6 31.8H27V33H24.6zM21.6 31.8H24V33H21.6z"/>
        <path fill="url(#j9me2zq6ma)" d="M27.6.548c-.027-.31-.288-.55-.6-.548H3c-.312-.001-.573.237-.6.548L0 28.2v7.2c0 .331.269.6.6.6h28.8c.331 0 .6-.269.6-.6v-7.252L27.6.548zM28.8 34.8H1.2V30h27.6v4.8zm0-6H1.2v-.548L3.55 1.2h22.9l2.35 27v.6z"/>
        <path fill="url(#3qrotxbkjb)" d="M25.314 8.416c-.172-.033-.349.01-.486.118L19.361 12.9l-3.84-6.6c-.108-.186-.306-.3-.521-.3-.214 0-.411.115-.518.3l-3.85 6.6-5.457-4.366c-.259-.207-.636-.165-.843.094-.11.138-.155.318-.12.492l2.4 12c.057.28.303.48.588.48h15.6c.285 0 .531-.2.588-.48l2.4-12c.063-.325-.149-.64-.474-.704zM22.788 18H21.6v1.2h.948l-.24 1.2H7.692l-.24-1.2H8.4V18H7.212l-1.5-7.5 4.713 3.771c.259.207.636.165.843-.093.019-.023.036-.048.05-.073L15 7.792l3.674 6.308c.167.286.534.383.82.216.026-.014.05-.03.073-.05l4.722-3.772L22.788 18z"/>
        <path fill="#AC4CC2" d="M9.6 18H10.799999999999999V19.2H9.6zM16.8 18H18V19.2H16.8zM19.2 18H20.4V19.2H19.2zM14.4 18H15.6V19.2H14.4zM12 18H13.2V19.2H12z"/>
    </g>
</svg>
