<svg xmlns="http://www.w3.org/2000/svg" width="30" height="30" viewBox="0 0 30 30">
    <defs>
        <linearGradient id="socl365rqa" x1="0%" x2="100%" y1="0%" y2="100%">
            <stop offset="0%" stop-color="#676767"/>
            <stop offset="100%" stop-color="#282828"/>
        </linearGradient>
        <linearGradient id="m43jv7u6cb" x1="50%" x2="50%" y1="0%" y2="99.388%">
            <stop offset="0%" stop-color="#029DF3"/>
            <stop offset="100%" stop-color="#5CC5FF"/>
        </linearGradient>
    </defs>
    <g fill="none" fill-rule="evenodd">
        <g>
            <g transform="translate(-291 -116) translate(291 116)">
                <rect width="24" height="24" x="3" y="3" fill="url(#socl365rqa)" rx="12"/>
                <path fill="url(#m43jv7u6cb)" fill-rule="nonzero" d="M8 18.275l.01-.12.028-.19L9.2 11.948c.207-1.073 1.044-1.865 2.022-1.942l.155-.006h7.242c.991 0 1.867.74 2.14 1.78l.038.168.377 2.206c.03.112.045.229.045.35v.42c0 .74-.59 1.341-1.323 1.361l-.001.002-8.898-.002-.323 1.572h8.377c-.02-.367.232-.702.603-.776.048-.01.097-.014.146-.014h1.155c.373 0 .69.274.742.644l.294 2.05c.084.594-.328 1.143-.92 1.228-.051.007-.103.011-.154.011h-.02c-.067 0-.134-.005-.2-.013-.065.008-.132.013-.2.013H9.5c-.828 0-1.5-.672-1.5-1.5v-1.225zm4.666-6.704c-.255 0-.467.186-.51.43l-.009.094v.524h-.518c-.286 0-.519.235-.519.524 0 .257.184.47.426.515l.093.009h.518v.523c0 .29.232.524.519.524.254 0 .466-.185.51-.43l.008-.094v-.523h.518c.286 0 .519-.235.519-.524 0-.257-.184-.471-.426-.516l-.093-.008h-.518v-.524c0-.289-.232-.524-.518-.524zm4.665 0c-.857 0-1.555.706-1.555 1.572 0 .866.698 1.571 1.555 1.571s1.555-.705 1.555-1.571-.698-1.572-1.555-1.572z"/>
            </g>
        </g>
    </g>
</svg>
