<svg xmlns="http://www.w3.org/2000/svg" width="30" height="30" viewBox="0 0 30 30">
    <defs>
        <linearGradient id="p0u3zaaswa" x1="0%" x2="100%" y1="0%" y2="100%">
            <stop offset="0%" stop-color="#676767"/>
            <stop offset="100%" stop-color="#282828"/>
        </linearGradient>
        <linearGradient id="o2qycwb5sb" x1="50%" x2="50%" y1="-.002%" y2="99.999%">
            <stop offset="0%" stop-color="#EC1C22"/>
            <stop offset="100%" stop-color="#FF7C46"/>
        </linearGradient>
        <linearGradient id="5c3uggshbc" x1="50%" x2="50%" y1="-.002%" y2="99.999%">
            <stop offset="0%" stop-color="#EC1C22"/>
            <stop offset="100%" stop-color="#FF7C46"/>
        </linearGradient>
    </defs>
    <g fill="none" fill-rule="evenodd">
        <g>
            <g transform="translate(-230 -116) translate(230 116)">
                <rect width="24" height="24" x="3" y="3" fill="url(#p0u3zaaswa)" rx="12"/>
                <g fill-rule="nonzero" transform="translate(9 8)">
                    <path fill="url(#o2qycwb5sb)" d="M5.56.146c.441-.244 1.217-.274 1.96.651.642.8.439 2.146-.61 4.037l-.002-.007c-.067.145-.145.288-.231.428-.135.188-.231.396-.327.603-.038.075-.096.17-.134.263-.193.452-.173.942.076 1.357.404.659 1.114.602 1.326.565.405-.07.89-.328 1.072-.835l.042-.145v-.019c0-.03.012-.096.007-.199l-.007-.083v-.019c-.212-2.712.038-2.882.23-2.995.144-.094.315-.123.479-.075l.097.038.02.019c.345.188.633.47.864.715 1.786 1.79 2.093 4.54.73 6.837-.255.443-.574.848-.941 1.205-.197.172-.395.3-.594.38-.949.275-1.406-.163-1.375-1.31.005-.058.008-.117.008-.178 0-1.168-1.007-2.116-2.25-2.116-1.189 0-2.162.867-2.244 1.965l-.006.152v.004l.004.1c.075.56.895 1.945-.004 2.012-.598.045-1.288-.324-2.07-1.106l-.17-.174c-.387-.421-.715-.894-.96-1.405-.5-1.054-.673-2.26-.462-3.409.327-1.714 1.48-3.07 2.363-3.955.557-.565 1.095-1.149 1.613-1.733.393-.437.802-.907 1.228-1.35.026-.03.057-.063.092-.094L5.39.264C5.436.219 5.49.18 5.552.15z"/>
                    <circle cx="6" cy="11.622" r="1.5" fill="url(#5c3uggshbc)"/>
                </g>
            </g>
        </g>
    </g>
</svg>
