<svg xmlns="http://www.w3.org/2000/svg" width="30" height="30" viewBox="0 0 30 30">
    <defs>
        <linearGradient id="tlmy47sfca" x1="0%" x2="100%" y1="0%" y2="100%">
            <stop offset="0%" stop-color="#676767"/>
            <stop offset="100%" stop-color="#282828"/>
        </linearGradient>
        <linearGradient id="m52azu31jb" x1="50%" x2="50%" y1="95.772%" y2="-54.753%">
            <stop offset="0%" stop-color="#F9B517"/>
            <stop offset="100%" stop-color="#FA6400"/>
        </linearGradient>
    </defs>
    <g fill="none" fill-rule="evenodd">
        <g>
            <g transform="translate(-87 -116) translate(87 116)">
                <rect width="24" height="24" x="3" y="3" fill="url(#tlmy47sfca)" rx="12"/>
                <path fill="url(#m52azu31jb)" d="M17.25 11.111c.828 0 1.5.672 1.5 1.5V20.5c0 .828-.672 1.5-1.5 1.5H10.5c-.828 0-1.5-.672-1.5-1.5v-7.889c0-.828.672-1.5 1.5-1.5h6.75zm2.679-2.333c.589 0 1.071.544 1.071 1.21v9.852c0 .389-.15.762-.42 1.042l-.33.341c-.167.173-.443.178-.617.01-.085-.081-.133-.195-.133-.313v-1.513h-.002l.002-7.564c0-.666-.883-1.51-1.472-1.51H10.5c-.153 0-.301-.023-.44-.066h-.002l-.048-.016c-.46-.159-.82-.536-.953-1.008l-.03-.128C9.008 9.024 9 8.93 9 8.833V8.75c0-.414.336-.75.75-.75s.75.336.75.75v.028zm-5.679 10.11h-3c-.38 0-.693.283-.743.65l-.007.1v.056c0 .38.282.694.648.744l.102.006h3c.38 0 .693-.282.743-.648l.007-.102v-.055c0-.414-.336-.75-.75-.75zm2.25-2.332h-5.25c-.38 0-.693.282-.743.648l-.007.102v.055c0 .38.282.694.648.743l.102.007h5.25c.38 0 .693-.282.743-.648l.007-.102v-.055c0-.415-.336-.75-.75-.75zm-3-3.89h-2.25c-.38 0-.693.283-.743.649l-.007.102v1.61c0 .38.282.694.648.744l.102.007h2.25c.38 0 .693-.282.743-.648l.007-.102v-1.611c0-.415-.336-.75-.75-.75z"/>
            </g>
        </g>
    </g>
</svg>
