<svg xmlns="http://www.w3.org/2000/svg" width="17" height="17" viewBox="0 0 17 17">
    <g fill="none" fill-rule="evenodd">
        <g>
            <g>
                <path fill="#282828" fill-rule="nonzero" stroke="#FFCD00" d="M7.5-.5c2.206 0 4.206.897 5.654 2.346C14.603 3.294 15.5 5.294 15.5 7.5s-.897 4.206-2.346 5.654C11.706 14.603 9.706 15.5 7.5 15.5s-4.206-.897-5.654-2.346C.397 11.706-.5 9.706-.5 7.5s.897-4.206 2.346-5.654C3.294.397 5.294-.5 7.5-.5z" transform="translate(-265 -218) translate(266 219)"/>
                <g fill="#FFCD00" transform="translate(-265 -218) translate(266 219) translate(3 4)">
                    <g fill-rule="nonzero">
                        <path d="M8.612.503C8.378.372 8.1.43 7.952.575c-.958.94-.952.954-1.067.996-.142.053-.289.024-.406-.07C4.72.02 4.832.115 4.816.105c-.24-.167-.544-.12-.706.037-1.728 1.657-1.63 1.572-1.7 1.61-.2.107-.4.036-.544-.13C.966.584 1.032.66 1.011.641.57.258-.066.666.006 1.295l.328 3.3.048.478c.06.516.438.93.918.93h6.353c.494 0 .87-.44.919-.934l.383-3.839c.034-.305-.1-.59-.343-.727zm-8.005.522c.014-.007.027-.012.05.004l.813.937c.405.468 1.017.463 1.396.096L4.46.533c.017-.01.033-.011.05-.001l1.637 1.375c.26.21.6.275.92.156.248-.092.281-.16 1.239-1.1.02-.014.032-.012.049-.002.046.026.09.103.078.21L8.12 4.305H.833L.527 1.237c-.013-.117.04-.191.08-.212zm7.046 4.452H1.3c-.195 0-.365-.199-.397-.463L.885 4.83h7.183l-.019.184c-.031.264-.201.463-.396.463z" transform="translate(0 1)"/>
                    </g>
                    <circle cx="4.5" cy="1" r="1"/>
                </g>
            </g>
        </g>
    </g>
</svg>
